<?xml version="1.0" encoding="UTF-8"?>
<svg xmlns="http://www.w3.org/2000/svg" viewBox="0 0 150 150" fill="none">
  <path d="M141.666 41.25v92.083c0 9.209-7.458 16.667-16.666 16.667H25c-9.209 0-16.667-7.458-16.667-16.667V16.667C8.333 7.458 15.791 0 25 0h75.416l41.25 41.25Z" fill="#300"></path>
  <path d="M100.417 24.583V0l41.25 41.25h-24.583c-9.209 0-16.667-7.458-16.667-16.667ZM75.326 96.897H60.418l-3.848 11.094c-.045.366-.277.549-.696.549h-6.997c-.467 0-.63-.229-.488-.686l13.504-40.038c.381-1.22.57-2.49.558-3.768a.368.368 0 0 1 .249-.4.37.37 0 0 1 .167-.015h9.797c.283 0 .446.116.492.34l15.11 43.951c.142.416.026.616-.35.616h-7.834a.732.732 0 0 1-.7-.416l-4.056-11.227Zm-13.242-7.484h11.613c-.28-.612-5.502-17.435-5.877-18.853h-.067l-5.669 18.853Zm34.534-17.464a4.924 4.924 0 0 1-3.586-1.335 4.801 4.801 0 0 1-1.375-3.618 4.861 4.861 0 0 1 1.412-3.654 4.998 4.998 0 0 1 3.624-1.373 4.816 4.816 0 0 1 3.624 1.373 5.01 5.01 0 0 1 1.337 3.654 4.8 4.8 0 0 1-1.375 3.618 5.026 5.026 0 0 1-3.661 1.335Zm-4.128 35.967V75.832a.49.49 0 0 1 .558-.557h7.214a.501.501 0 0 1 .418.14.49.49 0 0 1 .141.417v32.15a.494.494 0 0 1-.559.558h-7.147a.568.568 0 0 1-.468-.157.556.556 0 0 1-.157-.467Z" fill="#FF9A00"></path>
</svg>