<?xml version="1.0" encoding="UTF-8"?>
<svg xmlns="http://www.w3.org/2000/svg" viewBox="0 0 150 150" fill="none">
  <path d="M141.666 41.25v92.083c0 9.209-7.458 16.667-16.666 16.667H25c-9.209 0-16.667-7.458-16.667-16.667V16.667C8.333 7.458 15.791 0 25 0h75.416l41.25 41.25Z" fill="#3DDC84"></path>
  <path d="M100.417 24.583V0l41.25 41.25h-24.583c-9.209 0-16.667-7.458-16.667-16.667Z" fill="#20B161"></path>
  <path d="M114.584 108.508H35.417a44.85 44.85 0 0 1 7.292-20.025 36.945 36.945 0 0 1 12.07-11.641l1.355-.759-6.584-11.008c-.483-.792-.562-1.958.492-2.73 1.054-.77 2.633.18 2.854.563l6.858 11.542c5.075-2.025 9.917-2.825 15.375-2.754 5.375-.067 10.134.52 15.105 2.546L97.063 62.7c.225-.388 1.683-1.15 2.683-.554 1 .6 1.208 1.937.721 2.72L93.8 76.147l1.65.925a37.54 37.54 0 0 1 11.975 11.942 47.762 47.762 0 0 1 7.159 19.495ZM89.842 93.729a3.3 3.3 0 1 0 6.6 0 3.3 3.3 0 0 0-6.6 0Zm-36.283 0a3.3 3.3 0 1 0 6.6 0 3.3 3.3 0 0 0-6.6 0Z" fill="#fff"></path>
</svg>
