<?xml version="1.0" encoding="UTF-8"?>
<svg xmlns="http://www.w3.org/2000/svg" viewBox="0 0 150 150" fill="none">
  <path d="M141.666 41.25v92.083c0 9.209-7.458 16.667-16.666 16.667H25c-9.209 0-16.667-7.458-16.667-16.667V16.667C8.333 7.458 15.791 0 25 0h75.416l41.25 41.25Z" fill="#43B157"></path>
  <path d="M100.417 24.583V0l41.25 41.25h-24.583c-9.208 0-16.667-7.458-16.667-16.667" fill="#A3D9AD"></path>
  <path d="m59.185 100.58 4.475 1.419c-.686 2.495-1.83 4.35-3.43 5.566-1.591 1.206-3.613 1.809-6.066 1.809-3.035 0-5.53-1.034-7.485-3.103-1.954-2.079-2.931-4.917-2.931-8.513 0-3.805.982-6.757 2.947-8.857 1.965-2.11 4.548-3.165 7.75-3.165 2.796 0 5.067.826 6.813 2.48 1.04.976 1.82 2.38 2.34 4.21l-4.57 1.09c-.27-1.184-.836-2.12-1.699-2.806-.852-.686-1.892-1.03-3.118-1.03-1.695 0-3.072.609-4.132 1.825-1.05 1.216-1.575 3.186-1.575 5.91 0 2.89.52 4.948 1.559 6.174 1.04 1.227 2.39 1.84 4.054 1.84 1.227 0 2.282-.39 3.165-1.169.884-.78 1.518-2.006 1.903-3.68ZM66.466 101.547l4.491-.437c.27 1.507.816 2.614 1.637 3.321.832.707 1.95 1.061 3.353 1.061 1.486 0 2.604-.312 3.352-.936.759-.634 1.138-1.372 1.138-2.214 0-.541-.16-.998-.483-1.372-.312-.385-.863-.717-1.653-.998-.54-.187-1.772-.52-3.695-.998-2.474-.613-4.21-1.367-5.208-2.261-1.403-1.258-2.105-2.791-2.105-4.6 0-1.164.327-2.25.982-3.259.665-1.018 1.617-1.793 2.854-2.323 1.247-.53 2.75-.795 4.506-.795 2.869 0 5.026.629 6.47 1.886 1.456 1.258 2.22 2.937 2.293 5.037l-4.615.203c-.198-1.175-.624-2.017-1.28-2.526-.644-.52-1.615-.78-2.915-.78-1.34 0-2.39.276-3.15.826-.488.354-.733.827-.733 1.42 0 .54.23 1.002.687 1.387.582.489 1.996.998 4.24 1.528 2.246.53 3.904 1.081 4.975 1.653 1.08.561 1.923 1.336 2.526 2.323.613.977.92 2.188.92 3.633 0 1.31-.364 2.537-1.092 3.68-.727 1.144-1.757 1.996-3.087 2.557-1.33.551-2.989.827-4.974.827-2.89 0-5.11-.666-6.658-1.996-1.549-1.341-2.474-3.29-2.776-5.847ZM94.767 108.984l-8.17-22.858h5.005l5.784 16.918 5.598-16.918h4.896l-8.186 22.858h-4.927Z" fill="#fff"></path>
</svg>
