<?xml version="1.0" encoding="UTF-8"?>
<svg xmlns="http://www.w3.org/2000/svg" viewBox="0 0 150 150" fill="none">
  <path d="M141.666 41.25v92.083c0 9.209-7.458 16.667-16.666 16.667H25c-9.209 0-16.667-7.458-16.667-16.667V16.667C8.333 7.458 15.791 0 25 0h75.416l41.25 41.25Z" fill="url(#a)"></path>
  <path d="M100.417 24.583V0l41.25 41.25h-24.583c-9.209 0-16.667-7.458-16.667-16.667Z" fill="#41A5EE"></path>
  <path d="M62.315 98.032c.131 1.026.218 1.918.259 2.682h.153c.058-.725.18-1.598.364-2.62.184-1.023.35-1.887.499-2.593l7.021-30.154h9.08l7.284 29.701c.423 1.847.726 3.72.907 5.605h.12a42.78 42.78 0 0 1 .757-5.438l5.81-29.883h8.263l-10.205 43.213h-9.655l-6.92-28.618c-.2-.823-.43-1.9-.68-3.223-.252-1.323-.408-2.29-.47-2.9h-.12c-.08.703-.237 1.748-.47 3.132a81.646 81.646 0 0 1-.561 3.075l-6.505 28.527h-9.819L47.168 65.346h8.413l6.326 30.217c.142.62.277 1.446.408 2.469Z" fill="#fff"></path>
  <defs>
    <linearGradient id="a" x1="31.496" y1="-9.765" x2="134.757" y2="149.208" gradientUnits="userSpaceOnUse">
      <stop stop-color="#2368C4"></stop>
      <stop offset=".5" stop-color="#1A5DBE"></stop>
      <stop offset="1" stop-color="#1146AC"></stop>
    </linearGradient>
  </defs>
</svg>
