<?xml version="1.0" encoding="UTF-8"?>
<svg xmlns="http://www.w3.org/2000/svg" viewBox="0 0 150 150" fill="none">
  <path d="M141.666 41.25v92.083c0 9.167-7.5 16.667-16.666 16.667H25c-9.167 0-16.667-7.5-16.667-16.667V16.667C8.333 7.5 15.833 0 25 0h75.416l41.25 41.25Z" fill="#BABABA"></path>
  <path d="M100.417 24.583V0l41.25 41.25h-24.583c-9.209 0-16.667-7.458-16.667-16.667Z" fill="#979797"></path>
  <path d="M107.292 99.237c-.597-.085-.767-.341-.853-.853-1.706-9.464-6.74-16.797-14.845-21.998-.426-.256-.938-.597-1.45-.853.17-.085.17-.085.256-.085h19.964v-3.666H81.186c-.512 0-.768-.17-.768-.768-.171-1.705-1.45-2.899-3.157-2.899h-4.522c-1.706 0-2.986 1.109-3.157 2.814-.085.682-.34.767-.853.767H39.551v3.752h19.623c.17 0 .426-.085.597.085 0 .085 0 .085-.085.17-.427.086-.598.257-.768.342-3.328 1.961-6.228 4.348-8.617 7.247-3.584 4.349-5.887 9.294-6.911 14.837-.085.682-.341 1.023-1.024 1.108-1.791.341-2.815 1.62-2.815 3.41v4.093c0 1.791 1.109 3.155 2.9 3.411 1.792.17 3.499.17 5.29 0 1.621-.256 2.73-1.45 2.73-3.07a42.992 42.992 0 0 0 0-4.689c-.085-1.45-1.109-2.729-2.474-2.985-1.109-.17-.938-.34-.768-1.278 1.365-6.48 4.607-11.938 9.727-16.2 3.327-2.73 7.08-4.605 11.347-5.628.597-.17 1.023-.17 1.28.682.34 1.364 1.535 2.131 2.9 2.131h4.863c1.45 0 2.56-.938 2.901-2.302.17-.682.427-.682 1.024-.511 4.522 1.108 8.531 3.07 12.03 6.139 4.948 4.348 8.105 9.72 9.384 16.2.086.512-.085.682-.597.853-1.536.426-2.56 1.62-2.56 3.24v4.263c0 1.791 1.11 3.07 2.901 3.325 1.621.171 3.328.171 4.949 0 1.877-.17 3.071-1.534 3.071-3.496v-3.751c0-2.302-1.024-3.496-3.157-3.837Zm-60.66 5.542c0 1.961.17 1.705-1.792 1.705-1.706 0-1.62.171-1.62-1.534 0-2.217-.256-1.876 1.876-1.876 1.792-.085 1.536-.171 1.536 1.705Zm29.946-31.122c0 1.876.256 1.706-1.706 1.706s-1.706.255-1.706-1.706c0-1.96-.17-1.79 1.791-1.79 1.963 0 1.621-.17 1.621 1.79Zm28.411 32.827c-1.792 0-1.621.171-1.621-1.62 0-2.131-.256-1.79 1.877-1.79 1.536 0 1.536 0 1.536 1.705-.086 1.876.085 1.705-1.792 1.705Z" fill="#fff"></path>
</svg>
