<?xml version="1.0" encoding="UTF-8"?>
<svg xmlns="http://www.w3.org/2000/svg" viewBox="0 0 150 150" fill="none">
  <path d="M141.663 41.25v92.083c0 9.209-7.458 16.667-16.666 16.667h-100c-9.209 0-16.667-7.458-16.667-16.667V16.667C8.33 7.458 15.788 0 24.997 0h75.416l41.25 41.25Z" fill="#85BCFF"></path>
  <path d="M100.42 24.583V0l41.25 41.25h-24.583c-9.209 0-16.667-7.458-16.667-16.667Z" fill="#529EE0"></path>
  <path d="M100.462 53.292a7.878 7.878 0 0 1 7.871 7.87v44.976a7.877 7.877 0 0 1-7.871 7.87H45.375a7.867 7.867 0 0 1-7.871-7.875V61.167a7.87 7.87 0 0 1 7.87-7.871h55.084l.004-.004ZM89.783 75.217 69.541 96.683l-11.804-9.2-13.496 13.8v4.6c0 1.692 1.513 3.063 3.375 3.063h50.596c1.863 0 3.375-1.375 3.375-3.063v-18.4L89.783 75.217ZM56.4 62.687a4.7 4.7 0 1 0-.28 9.396 4.7 4.7 0 0 0 .28-9.395Z" fill="#fff"></path>
</svg>
