<?xml version="1.0" encoding="UTF-8"?>
<svg xmlns="http://www.w3.org/2000/svg" viewBox="0 0 150 150" fill="none">
  <path d="M141.666 41.25v92.083c0 9.209-7.458 16.667-16.666 16.667H25c-9.209 0-16.667-7.458-16.667-16.667V16.667C8.333 7.458 15.791 0 25 0h75.416l41.25 41.25Z" fill="#BABABA"></path>
  <path d="M100.417 24.583V0l41.25 41.25h-24.583c-9.209 0-16.667-7.458-16.667-16.667Z" fill="#979797"></path>
  <path d="M92.612 68.625a3.125 3.125 0 0 1 4.1-.28l.321.28 14.729 14.73a3.126 3.126 0 0 1 .28 4.1l-.28.32-14.729 14.729a3.122 3.122 0 0 1-4.257.141 3.124 3.124 0 0 1-.443-4.237l.28-.32 12.52-12.525-12.52-12.521a3.125 3.125 0 0 1-.28-4.1l.28-.317Zm-37.245 33.879a3.125 3.125 0 0 1-4.1.284l-.321-.284-14.734-14.729a3.125 3.125 0 0 1-.279-4.1l.28-.32 14.733-14.73a3.125 3.125 0 0 1 4.7 4.1l-.28.317-12.52 12.525 12.52 12.52a3.125 3.125 0 0 1 .28 4.101l-.28.316Zm21.837-32.867a3.125 3.125 0 0 1 5.908 1.988l-.133.404-12.208 29.463a3.123 3.123 0 0 1-3.879 1.754 3.127 3.127 0 0 1-2.03-3.742L65 99.1l12.204-29.462Z" fill="#fff"></path>
</svg>
