<?xml version="1.0" encoding="UTF-8"?>
<svg xmlns="http://www.w3.org/2000/svg" viewBox="0 0 150 150" fill="none">
  <path d="M141.666 41.25v92.083c0 9.209-7.458 16.667-16.666 16.667H25c-9.209 0-16.667-7.458-16.667-16.667V16.667C8.333 7.458 15.791 0 25 0h75.416l41.25 41.25Z" fill="#BABABA"></path>
  <path d="M100.417 24.583V0l41.25 41.25h-24.583c-9.209 0-16.667-7.458-16.667-16.667Z" fill="#979797"></path>
  <path d="M74.933 49.951a33.334 33.334 0 1 1 .004 66.668 33.334 33.334 0 0 1-.004-66.668Zm10.433 37.134a10.956 10.956 0 0 1-5.737 6.27l7.825 16.784a29.568 29.568 0 0 0 15.337-16.713l-17.425-6.341ZM74.933 75.876a7.408 7.408 0 1 0 0 14.817 7.408 7.408 0 0 0 0-14.817ZM62.412 56.43a29.546 29.546 0 0 0-15.338 16.713L64.5 79.484a10.945 10.945 0 0 1 5.738-6.27L62.412 56.43Z" fill="#fff"></path>
  <path d="M78.358 81.77a3.7 3.7 0 1 1-6.834.3 3.702 3.702 0 0 1 6.834-.303" fill="#fff"></path>
</svg>
