<?xml version="1.0" encoding="UTF-8"?>
<svg xmlns="http://www.w3.org/2000/svg" viewBox="0 0 150 150" fill="none">
  <path d="M141.666 41.25v92.083c0 9.209-7.458 16.667-16.666 16.667H25c-9.209 0-16.667-7.458-16.667-16.667V16.667C8.333 7.458 15.791 0 25 0h75.416l41.25 41.25Z" fill="#A15FDE"></path>
  <path d="M100.417 28.75V0l41.25 41.25h-28.75a12.5 12.5 0 0 1-12.5-12.5Z" fill="#C386F0"></path>
  <path d="M98.141 62.441v34.717c0 3.846-4.666 6.971-10.412 6.971-5.75 0-10.363-3.125-10.363-6.97 0-3.85 4.617-6.972 10.363-6.972 2.175 0 4.208.454 5.883 1.221V67.104l-30.141 7.104v30.917c0 3.846-4.709 6.967-10.546 6.967-5.838 0-10.592-3.125-10.592-6.967 0-3.85 4.75-6.97 10.592-6.97 2.075-.025 4.13.407 6.02 1.266V69.458c0-2.083 1.446-3.937 3.484-4.391l30.146-7.017a4.52 4.52 0 0 1 5.566 4.392Z" fill="#fff"></path>
</svg>
