<?xml version="1.0" encoding="UTF-8"?>
<svg xmlns="http://www.w3.org/2000/svg" viewBox="0 0 150 150" fill="none">
  <path d="M141.666 41.25v92.083c0 9.209-7.458 16.667-16.666 16.667H25c-9.209 0-16.667-7.458-16.667-16.667V16.667C8.333 7.458 15.791 0 25 0h75.416l41.25 41.25Z" fill="#C386F0"></path>
  <path d="M100.417 24.583V0l41.25 41.25h-24.583c-9.209 0-16.667-7.458-16.667-16.667Z" fill="#A15FDE"></path>
  <path d="M47.917 58.333h43.75c4.167 0 6.25 2.084 6.25 6.25v34.375c0 4.167-2.083 6.25-6.25 6.25h-43.75c-4.167 0-6.25-2.083-6.25-6.25V64.583c0-4.166 2.083-6.25 6.25-6.25ZM108.167 67.067a4.683 4.683 0 0 1 7.033 4.054v22.637c0 3.609-3.904 5.863-7.029 4.059l-7.912-4.567V71.625l7.908-4.558Z" fill="#fff"></path>
</svg>
