<?xml version="1.0" encoding="UTF-8"?>
<svg xmlns="http://www.w3.org/2000/svg" viewBox="0 0 150 150" fill="none">
  <path d="M141.666 41.25v92.083c0 9.167-7.5 16.667-16.666 16.667H25c-9.167 0-16.667-7.5-16.667-16.667V16.667C8.333 7.5 15.833 0 25 0h75.416l41.25 41.25Z" fill="#D23B41"></path>
  <path d="M100.417 24.583V0l41.25 41.25h-24.583c-9.209 0-16.667-7.458-16.667-16.667Z" fill="#9C171C"></path>
  <path d="M99.65 97.075c-1.742-.175-3.479-.533-5.22-1.425 1.562-.313 2.945-.313 4.508-.313 3.479 0 4.15.846 4.15 1.384-1.025.354-2.234.491-3.438.354ZM81.933 94.8c-3.791.85-7.991 2.1-11.783 3.483v-.358l-.358.18a139.345 139.345 0 0 0 5.22-11.83l.138.18.175-.313c1.921 2.945 4.375 5.891 6.963 8.479h-.534l.18.179Zm-9.016-33.65c.179-.18.537-.18.666-.18h.542a14.171 14.171 0 0 1-.183 9.017c-1.204-2.77-1.738-5.891-1.025-8.837Zm-21.334 51.683-.537.179a14.18 14.18 0 0 1 6.25-5.041c-1.383 2.271-3.304 4.012-5.712 4.862Zm47.534-22.72c-3.663 0-7.275.537-10.938 1.208a51.762 51.762 0 0 1-10.754-13.884c2.946-9.729 3.125-16.291.846-19.416a5.75 5.75 0 0 0-4.504-2.271c-2.233-.18-4.334.892-5.358 2.767-3.126 5.22 1.383 15.441 3.483 19.637-2.459 7.454-5.4 14.55-9.242 21.513-16.466 7.095-16.825 11.425-16.825 12.987 0 1.917 1.071 3.838 2.946 4.688.712.533 1.742.708 2.633.708 4.334 0 9.375-4.863 14.73-14.413 6.783-2.766 13.566-5 20.666-6.562a22.548 22.548 0 0 0 12.85 5.179c2.946 0 8.659 0 8.659-5.892.179-2.275-1.025-6.07-9.192-6.25Z" fill="#fff"></path>
</svg>
