<?xml version="1.0" encoding="UTF-8"?>
<svg xmlns="http://www.w3.org/2000/svg" viewBox="0 0 150 150" fill="none">
  <path d="M141.666 41.25v92.083c0 9.209-7.458 16.667-16.666 16.667H25c-9.209 0-16.667-7.458-16.667-16.667V16.667C8.333 7.458 15.791 0 25 0h75.416l41.25 41.25Z" fill="url(#a)"></path>
  <path d="M100.417 24.583V0l41.25 41.25h-24.583c-9.209 0-16.667-7.458-16.667-16.667Z" fill="#FF8F6B"></path>
  <path d="M75.591 65.373a17.845 17.845 0 0 1 11.822 3.463 12.396 12.396 0 0 1 4.115 10.034c.046 2.64-.658 5.24-2.03 7.497a13.561 13.561 0 0 1-5.761 5.093 19.563 19.563 0 0 1-8.666 1.82h-8.213v15.265h-8.41V65.373H75.59Zm-8.74 21.313h7.239a9.4 9.4 0 0 0 6.4-1.909 7.084 7.084 0 0 0 2.163-5.585c0-4.758-2.765-7.136-8.294-7.136h-7.508v14.63Z" fill="#fff"></path>
  <defs>
    <linearGradient id="a" x1="31.496" y1="-9.765" x2="134.757" y2="149.208" gradientUnits="userSpaceOnUse">
      <stop stop-color="#CA4C28"></stop>
      <stop offset=".5" stop-color="#C5401E"></stop>
      <stop offset="1" stop-color="#B62F14"></stop>
    </linearGradient>
  </defs>
</svg>
