<?xml version="1.0" encoding="UTF-8"?>
<svg xmlns="http://www.w3.org/2000/svg" viewBox="0 0 150 150" fill="none">
  <path d="M141.666 41.25v92.083c0 9.209-7.458 16.667-16.666 16.667H25c-9.209 0-16.667-7.458-16.667-16.667V16.667C8.333 7.458 15.791 0 25 0h75.416l41.25 41.25Z" fill="#001E36"></path>
  <path d="M100.417 24.583V0l41.25 41.25h-24.583c-9.209 0-16.667-7.458-16.667-16.667ZM103.409 82.407c-1.294-.69-2.674-1.164-4.14-1.466-1.597-.345-3.192-.561-4.831-.561-.863-.043-1.769.086-2.588.302-.561.13-1.035.431-1.337.862a2.286 2.286 0 0 0-.345 1.165c0 .388.172.776.43 1.121.39.475.907.863 1.467 1.165a39.44 39.44 0 0 0 3.063 1.423 31.234 31.234 0 0 1 6.642 3.149 10.033 10.033 0 0 1 3.407 3.58 9.302 9.302 0 0 1 .992 4.442 10.024 10.024 0 0 1-1.682 5.737 10.813 10.813 0 0 1-4.83 3.839c-2.114.905-4.702 1.38-7.807 1.38-1.984 0-3.925-.173-5.866-.561a17.405 17.405 0 0 1-4.4-1.38c-.302-.173-.517-.475-.474-.82v-7.505c0-.129.043-.301.172-.388.13-.086.26-.043.389.043a18.466 18.466 0 0 0 5.348 2.114c1.639.431 3.364.647 5.09.647 1.639 0 2.803-.216 3.58-.604.69-.302 1.164-1.035 1.164-1.811 0-.604-.345-1.165-1.035-1.726-.69-.56-2.114-1.207-4.227-2.027a26.389 26.389 0 0 1-6.125-3.105 11.168 11.168 0 0 1-3.278-3.666 9.256 9.256 0 0 1-.992-4.4c0-1.855.518-3.623 1.467-5.219 1.078-1.725 2.674-3.105 4.529-3.968 2.027-1.035 4.572-1.51 7.634-1.51 1.768 0 3.58.13 5.348.389 1.294.172 2.545.517 3.709.992.173.043.345.215.432.388.043.172.086.345.086.517v7.03a.53.53 0 0 1-.216.432c-.388.086-.603.086-.776 0ZM43.887 107.078V62.696c0-.302.13-.474.431-.474.733 0 1.423 0 2.415-.044 1.036-.043 2.114-.043 3.278-.086 1.165-.043 2.416-.043 3.753-.086 1.337-.043 2.63-.043 3.925-.043 3.537 0 6.47.431 8.885 1.337 2.157.733 4.14 1.94 5.78 3.537a13.733 13.733 0 0 1 3.148 4.917c.647 1.811.992 3.666.992 5.607 0 3.71-.862 6.771-2.588 9.187-1.725 2.415-4.14 4.227-6.944 5.262-2.933 1.078-6.168 1.466-9.705 1.466-1.035 0-1.725 0-2.156-.043-.431-.043-1.035-.043-1.855-.043v13.845c.043.302-.172.561-.474.604h-8.368c-.345 0-.517-.172-.517-.561Zm9.402-36.532v14.492c.604.043 1.165.087 1.682.087h2.287a16.11 16.11 0 0 0 4.96-.777c1.38-.388 2.587-1.207 3.536-2.286.906-1.078 1.337-2.545 1.337-4.442a7.099 7.099 0 0 0-.992-3.84c-.733-1.12-1.768-1.983-3.019-2.458-1.596-.647-3.32-.905-5.09-.862-1.12 0-2.113 0-2.932.043-.863-.043-1.467 0-1.769.043Z" fill="#31A8FF"></path>
</svg>
