<?xml version="1.0" encoding="UTF-8"?>
<svg xmlns="http://www.w3.org/2000/svg" viewBox="0 0 150 150" fill="none">
  <path d="M141.666 41.25v92.083c0 9.209-7.458 16.667-16.666 16.667H25c-9.209 0-16.667-7.458-16.667-16.667V16.667C8.333 7.458 15.791 0 25 0h75.416l41.25 41.25Z" fill="#FFC63A"></path>
  <path d="M100.417 24.583V0l41.25 41.25h-24.583c-9.209 0-16.667-7.458-16.667-16.667Z" fill="#DD9F08"></path>
  <path d="M63.95 70.17h10.025V60.147H63.95V70.17Zm10.025 10.026H84V70.17H73.975v10.025Zm-5.012 31.458h10.025v-10.025H68.963v10.025Zm-5.013-20.05v20.05a5.012 5.012 0 0 0 5.013 5.013h10.025A5.01 5.01 0 0 0 84 111.654v-20.05H63.95Z" fill="#fff"></path>
  <path d="M63.95 50.12h10.025V40.097H63.95V50.12Zm10.025 10.03H84V50.125H73.975V60.15Z" fill="#fff"></path>
  <path d="M63.95 10.025h10.025V0H63.95v10.025ZM73.975 20.05H84V10.025H73.975V20.05ZM63.95 30.075h10.025V20.05H63.95v10.025ZM73.975 40.1H84V30.075H73.975V40.1Z" fill="#fff"></path>
</svg>
