<?xml version="1.0" encoding="UTF-8"?>
<svg xmlns="http://www.w3.org/2000/svg" viewBox="0 0 150 150" fill="none">
  <path d="M141.666 41.25v92.083c0 9.209-7.458 16.667-16.666 16.667H25c-9.209 0-16.667-7.458-16.667-16.667V16.667C8.333 7.458 15.791 0 25 0h75.416l41.25 41.25Z" fill="#BABABA"></path>
  <path d="M100.417 24.583V0l41.25 41.25h-24.583c-9.209 0-16.667-7.458-16.667-16.667Z" fill="#979797"></path>
  <path d="M46.29 52.588h28.783v5.757H46.29v-5.757Zm0 17.27h57.567v5.757H46.289v-5.757Zm0 17.27h57.567v5.758H46.289v-5.757Zm0 17.271h57.567v5.757H46.289v-5.757Z" fill="#F5F5F5"></path>
</svg>
