<?xml version="1.0" encoding="UTF-8"?>
<svg xmlns="http://www.w3.org/2000/svg" viewBox="0 0 150 150" fill="none">
  <path d="M141.666 41.25v92.083c0 9.167-7.5 16.667-16.666 16.667H25c-9.167 0-16.667-7.5-16.667-16.667V16.667C8.333 7.5 15.833 0 25 0h75.416l41.25 41.25Z" fill="#76B83F"></path>
  <path d="M100.417 24.583V0l41.25 41.25h-24.583c-9.209 0-16.667-7.458-16.667-16.667Z" fill="#649C35"></path>
  <path fill-rule="evenodd" clip-rule="evenodd" d="M79.927 120.091c13.049-1.836 23.799-10.827 28.165-22.879-.345.128-.765.279-1.267.43-5.87 1.733-9.988-1.37-10.82-1.906-.83-.53-1.72-1.41-1.886-1.364-.537 3.327-3.574 7.947-10.506 10.043-3.796 1.151-7.883 1.178-10.799-.458l.962 2.415c.385.962 1.031 2.542 1.432 3.5 0 0 2.518 6.003 4.719 10.219Z" fill="#fff"></path>
  <path fill-rule="evenodd" clip-rule="evenodd" d="m47.766 70.787 10.389-1.938c.946-.173 1.995.365 2.327 1.194l7.138 17.831c.972 1.86 1.17 2.27 1.802 3.063 0 0 4.929 7.043 12.442 5.322 5.066-1.159 7.431-4.965 7.592-7.673.166-.87-.094-1.963-.545-2.984l-8.55-19.348c-.343-.78.064-1.545.899-1.705l8.663-1.615c.795-.142 1.727.35 2.073 1.105l9.47 20.294a18.96 18.96 0 0 0 1.724 2.837s1.97 2.832 5.125 2.294c.78 0 1.67-.422 1.67-.422.138-1.264.212-2.545.212-3.847 0-19.466-15.766-35.244-35.215-35.244-19.444 0-35.206 15.778-35.206 35.244 0 15.621 10.153 28.863 24.214 33.487-.95-1.956-1.91-4.118-2.697-6.23L46.518 72.71c-.325-.873.244-1.735 1.248-1.923Z" fill="#fff"></path>
</svg>
