<?xml version="1.0" encoding="UTF-8"?>
<svg xmlns="http://www.w3.org/2000/svg" viewBox="0 0 150 150" fill="none">
  <path d="M141.666 41.25v92.083c0 9.209-7.458 16.667-16.666 16.667H25c-9.209 0-16.667-7.458-16.667-16.667V16.667C8.333 7.458 15.791 0 25 0h75.416l41.25 41.25Z" fill="url(#a)"></path>
  <path d="m55.81 108.545 13.954-21.666L56.98 65.332h10.285l6.977 13.78c.644 1.308 1.085 2.28 1.324 2.922h.09a54.37 54.37 0 0 1 1.448-3.042l7.459-13.653h9.44l-13.11 21.42 13.444 21.786H84.29L76.231 93.42c-.38-.643-.701-1.32-.962-2.02h-.12a9.571 9.571 0 0 1-.933 1.959l-8.298 15.186H55.81Z" fill="#fff"></path>
  <path d="M100.417 24.583V0l41.25 41.25h-24.583c-9.209 0-16.667-7.458-16.667-16.667Z" fill="#33C481"></path>
  <defs>
    <linearGradient id="a" x1="31.496" y1="-9.765" x2="134.757" y2="149.208" gradientUnits="userSpaceOnUse">
      <stop stop-color="#18884F"></stop>
      <stop offset=".5" stop-color="#117E43"></stop>
      <stop offset="1" stop-color="#0B6631"></stop>
    </linearGradient>
  </defs>
</svg>
