<svg width="687" height="359" fill="none" xmlns="http://www.w3.org/2000/svg">
  <g clip-path="url(#a)">
    <g opacity=".68">
      <path opacity=".47" d="M611.658 168.715c-2.719-27.027-15.799-54.099-38.454-73.447-35.301-30.147-88.7-37.745-135.5-30.776-19.603 2.92-39.042 8.09-59.114 6.463-29.274-2.373-55.061-18.646-81.714-30.574-36.281-16.237-77.871-24.976-116.442-17.91-43.733 8.011-79.59 38.27-83.868 78.419-1.94 18.192 17.761 50.241 11.544 67.482-6.306 17.486-52.346 71.048-51.21 111.788 1.13 40.588 11.733 53.212 26.718 73.84H572.922c9.33-20.901 16.64-37.619 5.716-65.066-8.728-21.93 14.985-39.991 24.16-60.405 8.162-18.169 10.85-40.018 8.859-59.814Z" fill="#9FBFFF"/>
    </g>
    <path opacity=".41" d="M4.89 172.794c-9.329-18.269-2.08-40.64 16.19-49.968 18.269-9.328 53.332-8.56 62.66 9.709 9.329 18.269-18.791 33.867-30.281 50.859-16.026 23.698-39.243 7.668-48.57-10.6ZM646.317 243.504c8.935 9.684 9.662 23.547 1.624 30.963-8.038 7.417-27.383 10.732-36.318 1.048-8.935-9.684 3.177-21.825 5.899-32.997 3.796-15.582 19.86-8.698 28.795.986ZM571.091 25.593c10.366-5.473 23.205-1.505 28.677 8.862 5.472 10.366 5.306 30.407-5.06 35.879-10.366 5.471-19.497-10.475-29.296-16.908-13.666-8.971-4.687-22.363 5.679-27.834Z" fill="#9FBFFF"/>
    <path d="M557.678 330.087c4.768-23.705-2.875-43.925-4.782-67.169-1.805-22.006 6.011-40.513 10.347-61.472 3.859-18.653 2.573-39.781-2.271-58.114-6.614-25.03-21.846-48.206-43.791-62.335-34.195-22.016-79.798-19.423-117.57-4.28-15.821 6.343-31.144 14.783-48.088 16.918-24.712 3.113-48.764-7.538-72.837-13.928-32.769-8.699-68.741-9.344-99.659 4.385-35.055 15.566-59.981 50.706-57.069 89.409 1.32 17.537 8.07 34.843 5.68 52.265-2.424 17.669-12.92 32.451-18.477 49.092-7.584 22.714-8.275 56.095 3.919 79.142h436.388a95.959 95.959 0 0 0 8.21-23.913Z" fill="#9FBFFF" opacity=".43"/>
    <path d="M476.532 255.82c-1.393-14.321-8.094-28.666-19.701-38.918-18.085-15.974-45.443-20.001-69.419-16.308-10.043 1.547-20.002 4.287-30.285 3.424-14.998-1.258-28.209-9.88-41.864-16.201-18.588-8.604-39.895-13.234-59.656-9.49-22.405 4.245-40.775 20.279-42.967 41.553-.993 9.64 9.099 26.622 5.914 35.758-3.231 9.266-26.818 37.647-26.236 59.235.579 21.507 6.012 28.196 13.688 39.127H456.686c4.78-11.075 8.525-19.934 2.928-34.478-4.472-11.62 7.677-21.191 12.377-32.008 4.184-9.627 5.561-21.205 4.541-31.694Z" fill="#9FBFFF" opacity=".47"/>
    <path d="M680.303 357.133H30.17a1.581 1.581 0 0 1 0-3.162h650.133a1.581 1.581 0 0 1 0 3.162Z" fill="#9FBFFF"/>
    <path d="M655.5 212a4.5 4.5 0 1 0 0-9 4.5 4.5 0 0 0 0 9Z" fill="#17014C"/>
    <path d="M623.5 336a3.5 3.5 0 1 0 0-7 3.5 3.5 0 0 0 0 7ZM80.5 56a4.5 4.5 0 1 0 0-9 4.5 4.5 0 0 0 0 9Z" fill="#4E69FF"/>
    <path d="M38.148 319.426a4.779 4.779 0 1 1-9.558 0 4.779 4.779 0 0 1 9.558 0ZM51.5 75a1.5 1.5 0 1 0 0-3 1.5 1.5 0 0 0 0 3Z" fill="#17014C"/>
    <path d="M435.008 15.441c-1.386 6.49-7.77 10.626-14.259 9.24-6.489-1.386-10.626-7.77-9.24-14.259 1.386-6.488 7.77-10.625 14.258-9.24 6.49 1.388 10.627 7.772 9.241 14.26Z" fill="#4E69FF"/>
    <path d="M624.506 33.444a3.648 3.648 0 1 1-7.135-1.523 3.648 3.648 0 0 1 7.135 1.523ZM154.641 10.229a3.648 3.648 0 1 1-7.136-1.524 3.648 3.648 0 1 1 7.136 1.524Z" fill="#FFB54A"/>
    <path d="M654.569 115.583a3.648 3.648 0 1 1-7.135-1.523 3.648 3.648 0 0 1 7.135 1.523Z" fill="#4E69FF"/>
    <path d="M391.916 26.877a2.862 2.862 0 1 1-5.598-1.197 2.862 2.862 0 0 1 5.598 1.197Z" fill="#17014C"/>
    <path d="M346.031 143c31.74 0 57.469-25.73 57.469-57.469 0-31.74-25.729-57.469-57.469-57.469-31.739 0-57.469 25.73-57.469 57.469S314.292 143 346.031 143Z" fill="#1B1B25"/>
    <path d="M339.969 136.938c31.739 0 57.469-25.73 57.469-57.469 0-31.74-25.73-57.469-57.469-57.469S282.5 47.73 282.5 79.469s25.73 57.469 57.469 57.469Z" fill="#FFB54A"/>
    <path d="M339.969 125.867c-25.522 0-46.286-20.764-46.286-46.286 0-25.522 20.764-46.286 46.286-46.286 25.522 0 46.286 20.764 46.286 46.286 0 25.523-20.764 46.286-46.286 46.286Zm0-89.571c-23.868 0-43.286 19.418-43.286 43.286 0 23.868 19.418 43.286 43.286 43.286 23.868 0 43.286-19.418 43.286-43.286 0-23.868-19.418-43.286-43.286-43.286Z" fill="#FCF0E3"/>
    <path d="M336.587 100.331a32.796 32.796 0 0 1-8.36-2.165 31.777 31.777 0 0 1-7.361-4.164l5.196-7.594c1.82 1.377 3.586 2.521 5.296 3.431 1.709.911 3.564 1.565 5.563 1.965v-10.59c-2.398-.668-4.497-1.4-6.295-2.199-1.799-.8-3.287-1.754-4.464-2.865a10.882 10.882 0 0 1-2.664-3.897c-.6-1.487-.899-3.207-.899-5.163v-.133c0-1.865.333-3.552.999-5.063a11.555 11.555 0 0 1 2.831-3.93c1.221-1.109 2.698-2.009 4.43-2.698 1.732-.688 3.642-1.143 5.729-1.366v-3.864h6.928v3.997c2.397.356 4.607.944 6.628 1.765a28.708 28.708 0 0 1 5.762 3.164l-4.463 7.794a37.984 37.984 0 0 0-4.063-2.365 20.478 20.478 0 0 0-4.196-1.565v10.06c5.063 1.377 8.736 3.175 11.025 5.395 2.287 2.221 3.431 5.196 3.431 8.926v.133c0 1.865-.345 3.553-1.032 5.063a11.961 11.961 0 0 1-2.865 3.93c-1.222 1.111-2.697 2.021-4.43 2.731-1.732.711-3.663 1.177-5.795 1.399v6.595h-6.928v-6.727h-.003Zm.333-38.103c-1.599.223-2.765.7-3.498 1.432-.732.733-1.099 1.632-1.099 2.698v.133c0 1.022.311 1.9.933 2.631.621.733 1.842 1.432 3.664 2.1v-8.994Zm6.262 29.91c3.152-.489 4.73-1.91 4.73-4.264v-.133c0-1.154-.333-2.098-.999-2.83-.667-.734-1.91-1.433-3.73-2.099v9.325h-.001Z" fill="#1B1B25"/>
    <path d="M346.031 143c31.74 0 57.469-25.73 57.469-57.469 0-31.74-25.729-57.469-57.469-57.469-31.739 0-57.469 25.73-57.469 57.469S314.292 143 346.031 143Z" fill="#1B1B25"/>
    <path d="M339.969 136.938c31.739 0 57.469-25.73 57.469-57.469 0-31.74-25.73-57.469-57.469-57.469S282.5 47.73 282.5 79.469s25.73 57.469 57.469 57.469Z" fill="#FFB54A"/>
    <path d="M339.969 125.867c-25.522 0-46.286-20.764-46.286-46.286 0-25.522 20.764-46.286 46.286-46.286 25.522 0 46.286 20.764 46.286 46.286 0 25.523-20.764 46.286-46.286 46.286Zm0-89.571c-23.868 0-43.286 19.418-43.286 43.286 0 23.868 19.418 43.286 43.286 43.286 23.868 0 43.286-19.418 43.286-43.286 0-23.868-19.418-43.286-43.286-43.286Z" fill="#FCF0E3"/>
    <path d="M336.587 100.331a32.796 32.796 0 0 1-8.36-2.165 31.777 31.777 0 0 1-7.361-4.164l5.196-7.594c1.82 1.377 3.586 2.521 5.296 3.431 1.709.911 3.564 1.565 5.563 1.965v-10.59c-2.398-.668-4.497-1.4-6.295-2.199-1.799-.8-3.287-1.754-4.464-2.865a10.882 10.882 0 0 1-2.664-3.897c-.6-1.487-.899-3.207-.899-5.163v-.133c0-1.865.333-3.552.999-5.063a11.555 11.555 0 0 1 2.831-3.93c1.221-1.109 2.698-2.009 4.43-2.698 1.732-.688 3.642-1.143 5.729-1.366v-3.864h6.928v3.997c2.397.356 4.607.944 6.628 1.765a28.708 28.708 0 0 1 5.762 3.164l-4.463 7.794a37.984 37.984 0 0 0-4.063-2.365 20.478 20.478 0 0 0-4.196-1.565v10.06c5.063 1.377 8.736 3.175 11.025 5.395 2.287 2.221 3.431 5.196 3.431 8.926v.133c0 1.865-.345 3.553-1.032 5.063a11.961 11.961 0 0 1-2.865 3.93c-1.222 1.111-2.697 2.021-4.43 2.731-1.732.711-3.663 1.177-5.795 1.399v6.595h-6.928v-6.727h-.003Zm.333-38.103c-1.599.223-2.765.7-3.498 1.432-.732.733-1.099 1.632-1.099 2.698v.133c0 1.022.311 1.9.933 2.631.621.733 1.842 1.432 3.664 2.1v-8.994Zm6.262 29.91c3.152-.489 4.73-1.91 4.73-4.264v-.133c0-1.154-.333-2.098-.999-2.83-.667-.734-1.91-1.433-3.73-2.099v9.325h-.001ZM282.707 78.874c14.361 0 26.003-11.642 26.003-26.003 0-14.36-11.642-26.003-26.003-26.003s-26.003 11.642-26.003 26.003 11.642 26.003 26.003 26.003Z" fill="#1B1B25"/>
    <path d="M279.965 76.132c14.361 0 26.003-11.642 26.003-26.003s-11.642-26.003-26.003-26.003-26.003 11.642-26.003 26.003 11.642 26.003 26.003 26.003Z" fill="#FFB54A"/>
    <path d="M279.964 71.123c-11.548 0-20.943-9.395-20.943-20.943 0-11.548 9.395-20.943 20.943-20.943 11.548 0 20.943 9.395 20.943 20.943 0 11.548-9.395 20.943-20.943 20.943Zm0-40.53c-10.799 0-19.586 8.787-19.586 19.587 0 10.799 8.786 19.586 19.586 19.586 10.8 0 19.586-8.786 19.586-19.586-.001-10.8-8.787-19.586-19.586-19.586Z" fill="#FCF0E3"/>
    <path d="M278.435 59.568a14.904 14.904 0 0 1-3.783-.979 14.366 14.366 0 0 1-3.33-1.884l2.351-3.437a18.018 18.018 0 0 0 2.396 1.552 9.133 9.133 0 0 0 2.517.889v-4.792c-1.085-.302-2.035-.633-2.849-.995-.814-.361-1.487-.793-2.019-1.296a4.92 4.92 0 0 1-1.206-1.763c-.271-.673-.407-1.452-.407-2.336v-.061c0-.844.151-1.607.452-2.29a5.217 5.217 0 0 1 1.281-1.778c.553-.502 1.221-.909 2.004-1.221a9.832 9.832 0 0 1 2.592-.618v-1.748h3.135v1.809c1.085.161 2.085.427 2.999.799.914.372 1.783.849 2.608 1.432l-2.02 3.526a17.362 17.362 0 0 0-1.839-1.07 9.248 9.248 0 0 0-1.899-.708v4.551c2.291.623 3.954 1.437 4.989 2.441 1.035 1.005 1.552 2.351 1.552 4.039v.061c0 .844-.156 1.607-.467 2.29a5.415 5.415 0 0 1-1.296 1.778c-.553.502-1.221.914-2.004 1.236-.783.322-1.658.533-2.622.633v2.984h-3.135v-3.044Zm.151-17.24c-.724.101-1.251.316-1.583.648a1.66 1.66 0 0 0-.497 1.221v.06c0 .463.14.859.422 1.191.281.331.833.648 1.658.949v-4.069Zm2.833 13.533c1.427-.221 2.14-.864 2.14-1.929v-.06c0-.522-.15-.949-.452-1.281-.301-.332-.864-.648-1.688-.949v4.219Z" fill="#1B1B25"/>
    <path d="M250.596 96.823c0-6.237-5.056-11.292-11.292-11.292 6.237 0 11.292-5.056 11.292-11.292 0 6.236 5.056 11.292 11.292 11.292-6.236 0-11.292 5.055-11.292 11.292ZM383.255 153.596a8.293 8.293 0 0 0-8.293-8.293 8.293 8.293 0 0 0 8.293-8.293 8.293 8.293 0 0 0 8.293 8.293 8.293 8.293 0 0 0-8.293 8.293ZM329.049 193.535c0-8.422-6.827-15.25-15.25-15.25 8.422 0 15.25-6.827 15.25-15.25 0 8.422 6.828 15.25 15.25 15.25-8.423.001-15.25 6.828-15.25 15.25Z" fill="#fff"/>
    <path d="M381.695 75.877c0-7.892-6.398-14.29-14.29-14.29 7.892 0 14.29-6.398 14.29-14.291 0 7.892 6.398 14.29 14.29 14.29-7.892 0-14.29 6.398-14.29 14.29Z" fill="#FCF0E3"/>
    <path d="M429.466 85.531a7.883 7.883 0 0 0-7.883-7.883 7.883 7.883 0 0 0 7.883-7.883 7.883 7.883 0 0 0 7.883 7.883 7.883 7.883 0 0 0-7.883 7.883Z" fill="#fff"/>
    <path d="M187.917 59.229h-87.8c-9.03 0-16.351 7.32-16.351 16.351 0 9.03 7.32 16.35 16.351 16.35h72.358l9.955 9.071V91.93h5.488c9.03 0 16.351-7.32 16.351-16.35-.002-9.031-7.322-16.351-16.352-16.351Z" fill="#4E69FF"/>
    <path d="M108.034 73.326a5.183 5.183 0 1 0-6.618 0c-3.676 1.35-6.304 4.87-6.304 9.016 0 5.309 19.225 5.309 19.225 0 .001-4.145-2.627-7.666-6.303-9.016Z" fill="#FFB54A"/>
    <path d="M189.016 68.019h-62.914a.5.5 0 0 1 0-1h62.914a.5.5 0 0 1 0 1ZM179.256 82.781h-53.153a.5.5 0 0 1 0-1h53.153a.5.5 0 0 1 0 1ZM164.781 75.867h-38.678a.5.5 0 0 1 0-1h38.678a.5.5 0 0 1 0 1ZM189.016 75.867h-19.412a.5.5 0 0 1 0-1h19.412a.5.5 0 0 1 0 1ZM110.944 80.85c-.384 0-.767-.146-1.06-.439l-3.768-3.768a1.5 1.5 0 1 1 2.121-2.12l2.707 2.707 7.275-7.274a1.5 1.5 0 1 1 2.121 2.121l-8.335 8.335a1.503 1.503 0 0 1-1.061.438Z" fill="#fff"/>
    <path d="M579.508 144.38h90.081c9.265 0 16.775 7.511 16.775 16.775 0 9.265-7.511 16.775-16.775 16.775h-74.237l-10.213 9.307v-9.307h-5.63c-9.265 0-16.775-7.51-16.775-16.775-.002-9.264 7.509-16.775 16.774-16.775Z" fill="#FFB54A"/>
    <path d="M667.573 158.689a5.183 5.183 0 1 0-6.618 0c-3.676 1.35-6.304 4.871-6.304 9.016 0 5.309 19.225 5.309 19.225 0 0-4.144-2.627-7.665-6.303-9.016Z" fill="#4E69FF"/>
    <path d="M675.467 161.574h-2.483v-2.483a.487.487 0 0 0-.487-.487h-2.266a.487.487 0 0 0-.487.487v2.483h-2.483a.487.487 0 0 0-.487.487v2.266c0 .269.218.487.487.487h2.483v2.483c0 .269.218.487.487.487h2.266a.487.487 0 0 0 .487-.487v-2.483h2.483a.487.487 0 0 0 .487-.487v-2.266a.487.487 0 0 0-.487-.487ZM646.783 154.383H583.87a.5.5 0 0 1 0-1h62.913a.5.5 0 0 1 0 1ZM637.022 169.145H583.87a.5.5 0 0 1 0-1h53.152a.5.5 0 0 1 0 1ZM622.548 162.231H583.87a.5.5 0 0 1 0-1h38.678a.5.5 0 0 1 0 1ZM646.783 162.231h-19.412a.5.5 0 0 1 0-1h19.412a.5.5 0 0 1 0 1Z" fill="#fff"/>
    <path d="M466.277 47.673h62.055c6.382 0 11.556 5.174 11.556 11.556 0 6.382-5.174 11.556-11.556 11.556h-62.054c-6.382 0-11.556-5.174-11.556-11.556-.001-6.382 5.173-11.556 11.555-11.556Z" fill="#4E69FF"/>
    <path d="M521.326 55.428h-48.112a.5.5 0 0 1 0-1h48.112a.5.5 0 0 1 0 1ZM513.862 64.17h-40.648a.5.5 0 0 1 0-1h40.648a.5.5 0 0 1 0 1ZM502.793 60.075h-29.579a.5.5 0 0 1 0-1h29.579a.5.5 0 0 1 0 1ZM521.325 60.075H506.48a.5.5 0 0 1 0-1h14.845a.5.5 0 0 1 0 1Z" fill="#fff"/>
    <path d="M45.698 211.504h55.177c5.675 0 10.275 4.6 10.275 10.275 0 5.675-4.6 10.275-10.275 10.275H45.697c-5.674 0-10.274-4.6-10.274-10.275 0-5.675 4.6-10.275 10.275-10.275Z" fill="#FFB54A"/>
    <path d="M94.647 218.455h-42.78a.5.5 0 0 1 0-1h42.78a.5.5 0 0 1 0 1ZM88.01 226.228H51.867a.5.5 0 0 1 0-1H88.01a.5.5 0 0 1 0 1ZM78.167 222.587h-26.3a.5.5 0 0 1 0-1h26.3a.5.5 0 0 1 0 1ZM94.647 222.587h-13.2a.5.5 0 0 1 0-1h13.2a.5.5 0 0 1 0 1ZM453.515 267.066h-98.036a.5.5 0 0 1 0-1h98.035a.5.5 0 0 1 .001 1ZM453.515 290.07h-82.826a.5.5 0 0 1 0-1h82.826a.5.5 0 0 1 0 1ZM453.515 279.296h-60.271a.5.5 0 0 1 0-1h60.271a.5.5 0 0 1 0 1ZM385.727 279.296h-30.248a.5.5 0 0 1 0-1h30.248a.5.5 0 0 1 0 1ZM342.638 303.556h-98.035a.5.5 0 0 1 0-1h98.035a.5.5 0 0 1 0 1ZM327.428 326.559h-82.826a.5.5 0 0 1 0-1h82.826a.5.5 0 0 1 0 1ZM304.873 315.785h-60.27a.5.5 0 0 1 0-1h60.27a.5.5 0 0 1 0 1ZM342.638 315.785h-30.249a.5.5 0 0 1 0-1h30.249a.5.5 0 0 1 0 1Z" fill="#fff"/>
    <path d="m416.551 210.647.033-.115 14.478-50.366-.062-.047c.651-1.274 2.339-4.008 5.792-6.417 5.969-4.163 6.681-11.06 6.681-11.06 3.187-3.085 6.78-5.717 10.034-8.73.339-.314.693-.659.793-1.111.111-.504-.124-1.019-.412-1.447-1.68-2.489-4.766-2.849-7.334-1.699-1.504.673-2.849 1.631-4.109 2.684-.598.499-2.638 1.872-3.257 2.786l11.517-24.59c1.023-2.183.353-4.675-1.487-5.537-.92-.431-1.966-.376-2.909.06-.598.276-1.144.72-1.602 1.275l.056-.287c-13.488-11.342-30.131 27.263-30.131 27.263l-4.724 11.146-40.061 74.277c-5.665 10.777-1.298 24.104 9.646 29.439.158.077.317.144.475.217a21.755 21.755 0 0 0 10.911 2.92h78.84l16.989-40.377-70.157-.284Z" fill="#FEC29E"/>
    <path opacity=".17" d="M403.048 251.287c-1.011-.031-2.562-.078 0 0ZM403.062 251.287l.647.02-.647-.02ZM416.583 210.532l-2.294 7.98a242.245 242.245 0 0 1-2.018 7.02l-2.772 9.644a21.824 21.824 0 0 1-1.437 3.518c-2.386 7.139-4.355 12.613-4.355 12.613l28.353-40.598c-7.052 0-8.67-.169-15.477-.177Z" fill="#FF887C"/>
    <path d="M427.998 137.637a.499.499 0 0 1-.402-.797c5.032-6.825 11.797-3.137 11.863-3.1a.5.5 0 0 1-.49.873c-.246-.137-6.069-3.281-10.569 2.821a.496.496 0 0 1-.402.203ZM444.989 106.236a76.413 76.413 0 0 0-5.726 8.238 37.292 37.292 0 0 0-2.275 4.432c-.637 1.507-1.153 3.127-1.071 4.655l.002.031a.5.5 0 0 1-.998.054l-.001-.012c-.054-1.859.558-3.521 1.242-5.081a38.043 38.043 0 0 1 2.419-4.491 77.002 77.002 0 0 1 5.95-8.205.298.298 0 0 1 .464.375l-.006.004ZM441.514 104.809c-1.319.908-2.504 2.111-3.564 3.36-1.061 1.263-1.992 2.632-2.831 4.053a35.725 35.725 0 0 0-2.162 4.454c-.327.759-.571 1.551-.86 2.324l-.717 2.374-.009.029a.5.5 0 0 1-.957-.289l.003-.009.779-2.414c.311-.787.576-1.591.925-2.363a36.516 36.516 0 0 1 2.302-4.521c.888-1.442 1.869-2.828 2.985-4.105 1.127-1.272 2.326-2.462 3.784-3.425a.31.31 0 0 1 .347.514l-.025.018ZM436.06 105.193c-1.914 2.004-3.696 4.169-5.236 6.47-.76 1.156-1.49 2.336-2.064 3.581-.577 1.239-1.054 2.527-1.262 3.841l-.002.012a.5.5 0 1 1-.986-.168c.267-1.453.811-2.799 1.445-4.078.632-1.284 1.41-2.474 2.216-3.635 1.635-2.312 3.478-4.442 5.48-6.437a.292.292 0 0 1 .417.408l-.008.006Z" fill="#FB8E77"/>
    <path d="m598.512 283.984-19.34-52.717c-2.302-11.568-13.307-20.337-26.546-20.337l-54.022-.429-60.863.232v40.575h18.888l-9.749 105.826 134.021.758-.751-71.66 18.362-2.248Z" fill="#4E69FF"/>
    <path opacity=".05" d="m498.499 210.952.106-.452-60.863.232v40.575h18.888l.099-1.071c0-21.414 18.616-38.815 41.77-39.284Z" fill="#1B1B25"/>
    <path opacity=".18" d="M421.584 152.238s3.416 29.015 3.617 28.316l5.861-20.388-9.478-7.928Z" fill="#FF887C"/>
    <path d="m501.361 299.13-5.115-25.778-3.946-19.889a4.35 4.35 0 0 0-5.098-3.41l-19.756 3.92a4.35 4.35 0 0 0-3.41 5.098l3.972 20.018 3.15 15.877 1.939 9.772a4.35 4.35 0 0 0 5.098 3.41l11.668-2.315 8.087-1.605a4.351 4.351 0 0 0 3.411-5.098Z" fill="#1B1B25"/>
    <path d="m606.518 322.887-8.909-38.792-40.505 4.956 2.223 9.867-.205-.051-44.031-10.9-.037.054c-1.215-.609-3.498-2.06-5.505-5.061-3.692-5.517-9.894-5.669-9.894-5.669-1.195-1.252-2.309-2.589-3.41-3.939l1.033 5.199-.258.137a16.687 16.687 0 0 1-9.117 1.894l-19.359-1.511c-1.212-.095-2.375.549-2.897 1.647-5.667 11.912 18.665 22.81 24.217 25.114h-.002l.197.081.227.093.211.086.177.071a17.233 17.233 0 0 0 .313.122l9.523 3.57 75.385 37.106c.7.335 1.408.628 2.123.882a18.802 18.802 0 0 0 12.083 1.249c11.769-2.703 19.12-14.435 16.417-26.205Z" fill="#FEC29E"/>
    <path opacity=".17" d="m603.646 310.381-46.542-21.331c1.554 6.768.65 3.781 2.02 9.816l3.167.784c13.402.905 41.355 10.731 41.355 10.731Z" fill="#FF887C"/>
    <path opacity=".35" d="M553.344 289.551a.498.498 0 0 1-.488-.398l-5.815-28.168a.5.5 0 0 1 .388-.591.497.497 0 0 1 .591.388l5.723 27.715 19.585-2.492a.5.5 0 1 1 .127.993l-20.045 2.551-.066.002Z" fill="#1B1B25"/>
    <path opacity=".17" d="m603.963 311.984.079.399-.079-.399ZM604.041 312.383c.006.028.005.024 0 0ZM603.646 310.381l.211 1.068-.211-1.068ZM603.856 311.45l.106.535-.106-.535Z" fill="#FF887C"/>
    <path d="M548.757 106.491c-1.232-8.492-8.981-14.535-17.569-13.564a15.894 15.894 0 0 0-6.246 2.079c-2.763-4.522-7.965-7.292-13.578-6.657a13.995 13.995 0 0 0-8.184 3.871 18.421 18.421 0 0 0-10.363-1.847c-10.169 1.15-17.481 10.326-16.331 20.495a18.45 18.45 0 0 0 6.166 11.813l-3.766 20.118c-1.081 5.775 2.724 11.333 8.499 12.415l44.624 8.354c5.775 1.081 11.333-2.724 12.415-8.5l7.31-39.053a10.627 10.627 0 0 0-2.977-9.524Z" fill="#1B1B25"/>
    <path d="M483.717 117.492a.503.503 0 0 1-.423-.233c-7.971-12.614 3.008-20.703 3.12-20.783a.499.499 0 1 1 .583.812c-.425.306-10.318 7.63-2.857 19.436a.5.5 0 0 1-.423.768Z" fill="#FCF0E3"/>
    <path d="m541.539 145.93-.976-.183-9.851-21.173a15.954 15.954 0 0 1-6.665-2.577 11.97 11.97 0 0 1-7.474 3.793c-3.592.406-6.985-.822-9.46-3.082a18.434 18.434 0 0 1-10.132 4.49 18.46 18.46 0 0 1-12.234-2.913l-6.862 36.654c-.948 5.064.092 10.028 2.542 14.127 2.438 6.031 7.683 10.768 14.43 12.322v24.205c0 8.408 6.88 15.288 15.288 15.288h4.822c8.408 0 15.288-6.879 15.288-15.288V184.11a20.411 20.411 0 0 0 5.001-10.021l1.253-6.693.976.183c5.792 1.084 11.418-2.768 12.502-8.56l.11-.587c1.086-5.792-2.766-11.418-8.558-12.502Z" fill="#FEC29E"/>
    <path opacity=".32" d="m534.242 166.547-.894 4.775c-2.062 11.015-12.663 18.273-23.678 16.211l-15.573-2.915c-5.951-1.114-10.788-4.732-13.668-9.55 2.539 6.281 8.11 11.183 15.263 12.522l.621.116c2.475 5.127 7.716 8.695 13.764 8.695h4.884c7.214 0 13.289-5.07 14.873-11.82a20.449 20.449 0 0 0 5.424-10.492l1.253-6.693-2.269-.849Z" fill="#FF887C"/>
    <path d="M542.396 160.287a.498.498 0 0 1-.307-.105l-3.891-3.02a.5.5 0 0 1-.036-.759l4.798-4.529a.5.5 0 0 1 .685.728l-4.373 4.128 3.43 2.662a.5.5 0 0 1-.306.895Z" fill="#FB8E77"/>
    <path d="M517.652 141.68c-.751-.022-1.524-.477-2.297-.874a43.38 43.38 0 0 0-2.245-1.137 43.51 43.51 0 0 0-2.317-.99c-.801-.337-1.651-.639-2.141-1.196-.478-.529-.384-1.364.734-1.922 1.065-.555 3.234-.686 5.533.379 2.291 1.075 3.556 2.808 3.79 3.968.263 1.203-.337 1.801-1.057 1.772ZM485.835 138.938c.648.357 1.542.406 2.406.497.871.075 1.744.17 2.501.277a50 50 0 0 1 2.484.421c.856.149 1.735.349 2.444.182.684-.153 1.044-.815.39-1.783-.61-.938-2.378-2.113-4.886-2.47-2.507-.345-4.491.304-5.3 1.044-.857.756-.665 1.496-.039 1.832ZM510.297 150.228l.068.013a1.241 1.241 0 0 0 1.444-.989l.297-1.584a1.241 1.241 0 0 0-.989-1.444l-.068-.013a1.241 1.241 0 0 0-1.444.988l-.297 1.584c-.124.671.321 1.32.989 1.445ZM488.743 146.726l.068.013a1.241 1.241 0 0 0 1.444-.988l.297-1.584a1.241 1.241 0 0 0-.989-1.444l-.068-.013a1.241 1.241 0 0 0-1.444.988l-.297 1.584c-.125.669.32 1.319.989 1.444Z" fill="#1B1B25"/>
    <path opacity=".17" d="m511.187 155.959 4.425.498c.838.094 1.6-.514 1.694-1.351l.01-.085a1.537 1.537 0 0 0-1.351-1.694l-4.425-.498a1.537 1.537 0 0 0-1.694 1.351l-.01.085c-.095.838.513 1.6 1.351 1.694ZM482.002 151.362l4.425.498c.838.094 1.6-.514 1.694-1.351l.01-.085a1.537 1.537 0 0 0-1.351-1.694l-4.425-.498a1.537 1.537 0 0 0-1.694 1.351l-.01.085c-.094.837.514 1.6 1.351 1.694Z" fill="#FF887C"/>
    <path d="M494.898 174.001a.501.501 0 0 1-.295-.904c2.096-1.531 4.443-.672 5.392-.005a.499.499 0 0 1-.573.819c-.089-.063-2.197-1.491-4.229-.006a.504.504 0 0 1-.295.096Z" fill="#FB8E77"/>
    <path d="m498.28 159.786 11.694-1.671-1.281 4.062a6.248 6.248 0 0 1-5.959 4.369 4.152 4.152 0 0 1-4.128-3.708l-.326-3.052Z" fill="#fff"/>
    <path d="M501.304 155.641a.5.5 0 0 1-.126-.016l-3.626-.944a5.068 5.068 0 0 1-3.404-2.928 5.069 5.069 0 0 1 .229-4.484l5.522-9.939a.5.5 0 1 1 .875.486l-5.522 9.939a4.07 4.07 0 0 0-.185 3.605 4.073 4.073 0 0 0 2.736 2.355l3.626.944a.498.498 0 0 1-.125.982Z" fill="#FB8E77"/>
    <path d="m331.485 227.537-40.061-74.277-4.724-11.145s-16.643-38.605-30.131-27.263l.056.286c-.458-.555-1.004-.999-1.602-1.275-.944-.436-1.989-.49-2.909-.059-1.84.862-2.509 3.354-1.487 5.537l11.517 24.59c-.62-.914-2.66-2.286-3.257-2.786-1.26-1.053-2.605-2.011-4.109-2.684-2.568-1.15-5.654-.79-7.334 1.699-.289.428-.523.943-.412 1.447.099.452.453.797.793 1.111 3.254 3.014 6.846 5.645 10.033 8.73 0 0 .713 6.897 6.681 11.06 3.453 2.409 5.141 5.143 5.792 6.417l-.062.047 14.511 50.481-21.191.283v40.377h46.865c3.98 0 7.708-1.069 10.923-2.927.154-.071.31-.135.463-.21 10.943-5.335 15.31-18.662 9.645-29.439Z" fill="#FEC29E"/>
    <path opacity=".17" d="M297.622 260.113s-10.89-29.299-12.761-40.776c-7.216 0-8.313.322-15.528.322l28.289 40.454Z" fill="#FF887C"/>
    <path d="M273.332 146.443a.5.5 0 0 1-.403-.203c-4.499-6.102-10.324-2.958-10.569-2.82a.501.501 0 0 1-.489-.873c.068-.038 6.832-3.723 11.863 3.099a.5.5 0 0 1-.402.797ZM256.779 114.639c1.214 1.212 2.317 2.499 3.368 3.839a41.763 41.763 0 0 1 2.898 4.21c.862 1.475 1.63 3.012 2.241 4.623.578 1.624.988 3.319 1.125 5.066a.499.499 0 1 1-.997.078v-.007l-.001-.021c-.097-1.628-.449-3.244-.973-4.813-.556-1.56-1.271-3.068-2.084-4.525a40.996 40.996 0 0 0-2.761-4.187c-1.005-1.337-2.08-2.64-3.233-3.839l-.007-.007a.297.297 0 0 1 .424-.417ZM260.16 112.716c1.631.843 2.826 2.098 3.944 3.418a27.106 27.106 0 0 1 2.875 4.284c.848 1.497 1.549 3.065 2.216 4.645l.909 2.404.808 2.438a.5.5 0 0 1-.949.315l-.002-.006-.007-.022-.751-2.415-.85-2.38c-.625-1.562-1.284-3.114-2.086-4.59a26.378 26.378 0 0 0-2.718-4.22c-1.031-1.285-2.243-2.548-3.631-3.298l-.047-.025a.31.31 0 0 1 .289-.548ZM265.653 113.562c1.123.906 2.115 1.909 3.054 2.977a28.77 28.77 0 0 1 2.569 3.394 27.025 27.025 0 0 1 2.058 3.737c.614 1.289 1.064 2.648 1.475 4.017a.5.5 0 0 1-.958.288l-.003-.009-.007-.025c-.364-1.325-.763-2.647-1.327-3.908a26.336 26.336 0 0 0-1.907-3.675 27.834 27.834 0 0 0-2.423-3.371c-.885-1.061-1.851-2.082-2.89-2.964l-.013-.011a.292.292 0 0 1 .372-.45Z" fill="#FB8E77"/>
    <path opacity=".18" d="m268.464 166.117 15.481-1.911-9.573 19.041s-2.849-14.159-5.908-17.13Z" fill="#FF887C"/>
    <path d="m206.254 219.736.003.018c-.239-.006-.476-.018-.716-.018h-48.917c-10.62 0-19.679 6.668-23.229 16.045l-.005-.001-.075.203-.036.097-20.804 56.711 19.314 2.363v62.979h105.112l7.86-98.02h18.285v-40.575l-56.792.198Z" fill="#fff"/>
    <path opacity=".05" d="m263.587 219.539-55.843.233.001.007c20.936.872 37.643 18.113 37.643 39.264l-.086 1.071h18.285v-40.575Z" fill="#1B1B25"/>
    <path d="m244.083 262.779-19.756-3.92a4.35 4.35 0 0 0-5.098 3.41l-3.946 19.889-5.115 25.778a4.35 4.35 0 0 0 3.41 5.098l8.087 1.605 11.668 2.315a4.35 4.35 0 0 0 5.098-3.41l1.939-9.772 3.15-15.877 3.972-20.018a4.348 4.348 0 0 0-3.409-5.098Z" fill="#1B1B25"/>
    <path d="M246.154 289.322a2.875 2.875 0 0 0-1.106-1.215c-.084-.124-.152-.248-.243-.372l-.473.059a3.016 3.016 0 0 0-1.074-.119l-19.36 1.511a16.691 16.691 0 0 1-9.115-1.894l-.467-.248.969-4.886c-1.045 1.281-2.106 2.546-3.232 3.742-.571.032-3.831.321-6.88 2.594a12.434 12.434 0 0 0-3.192 3.271c-1.19 1.779-2.475 3.007-3.58 3.844-.646.465-1.22.797-1.654 1.015l-.038-.054-44.034 10.901-.202.05 2.235-9.914-40.515-4.908-8.909 38.792c-2.703 11.769 4.647 23.501 16.416 26.204 4.222.97 8.429.425 12.084-1.249a21.883 21.883 0 0 0 2.123-.882l74.533-36.687 10.103-3.787s.409-.157 1.124-.453l-.148-.029c4.609-1.876 30.456-13.048 24.635-25.286Z" fill="#FEC29E"/>
    <path opacity=".17" d="m107.574 320.756-.079.401.079-.401ZM152.404 307.674c.912-4.198.648-3.836 2.033-9.864l-46.552 21.378s4.613-1.389 10.978-3.078a21.824 21.824 0 0 1 1.815-.582l31.726-7.854ZM107.687 320.184l-.113.572.113-.572ZM107.494 321.157c-.012.062-.012.059 0 0ZM107.885 319.188l-.197.996c.098-.501.197-.996.197-.996Z" fill="#FF887C"/>
    <path opacity=".35" d="M158.187 298.31a.43.43 0 0 1-.062-.004l-8.838-1.091a.5.5 0 1 1 .122-.993l8.358 1.031 4.653-29.694a.5.5 0 0 1 .989.154l-4.729 30.173a.5.5 0 0 1-.493.424Z" fill="#1B1B25"/>
    <path opacity=".08" d="m168.511 303.52 19.955-.5c3.723.489 9.649-2.869 8.961-6.561l-28.916 7.061Z" fill="#FF887C"/>
    <path d="m231.467 206.961-6.786-46.188a51.005 51.005 0 0 0-4.276-14.237l3.685-.592s-2.587-37.49-44.634-28.539a51.163 51.163 0 0 0-12.711.277c-20.427 3.001-34.553 21.993-31.552 42.42l3.956 26.925c3.001 20.427 21.993 34.553 42.42 31.552l46.319-6.806a4.24 4.24 0 0 0 3.579-4.812Z" fill="#1B1B25"/>
    <path d="M203.574 144.473a.501.501 0 0 1-.067-.996l13.521-1.847a.403.403 0 0 0 .271-.163.373.373 0 0 0 .068-.286c-2.186-12.188-13.414-17.811-13.527-17.866a.5.5 0 0 1 .439-.899c.118.057 11.794 5.89 14.072 18.587.066.37-.02.743-.244 1.05a1.405 1.405 0 0 1-.945.566l-13.521 1.847a.255.255 0 0 1-.067.007Z" fill="#FCF0E3"/>
    <path d="m216.599 147.147-37.012 5.947-8.983-13.286c1.765 14.824-9.166 24.399-9.166 24.399s-.112-.153-.306-.434l-.307.057c-5.792 1.084-9.644 6.71-8.56 12.502 1.084 5.792 6.71 9.644 12.502 8.56l.707-.132a27.562 27.562 0 0 0 8.01 14.019V222.5c0 8.408 6.88 15.288 15.288 15.288 8.408 0 15.288-6.88 15.288-15.288v-18.733c6.09-2.803 10.858-7.698 13.58-13.617l.017-.027a27.341 27.341 0 0 0 3.411-19.106l-4.469-23.87Z" fill="#FEC29E"/>
    <path opacity=".32" d="M199.139 203.046c-13.713 2.567-26.952-5.545-31.148-18.469-.138-.424-2.553.131-2.492.391a27.565 27.565 0 0 0 8.057 13.88c.718 7.754 7.283 13.879 15.216 13.879 5.867 0 10.982-3.355 13.542-8.237 6.934-2.63 12.368-7.885 15.342-14.367-3.895 6.525-10.46 11.414-18.517 12.923Z" fill="#FF887C"/>
    <path d="M159.705 177.864a.5.5 0 0 1-.307-.895l3.325-2.58-4.244-4.005a.5.5 0 0 1 .686-.728l4.669 4.406a.502.502 0 0 1-.037.759l-3.786 2.938a.496.496 0 0 1-.306.105Z" fill="#FB8E77"/>
    <path d="M186.335 159.634c.446-.013.905-.283 1.364-.519a25.48 25.48 0 0 1 1.333-.675c.412-.192.893-.396 1.376-.588.475-.2.98-.379 1.271-.71.284-.314.228-.809-.436-1.141-.632-.329-1.92-.407-3.285.225-1.36.638-2.111 1.667-2.25 2.355-.156.715.2 1.07.627 1.053ZM212.862 155.02c-.432.111-.948-.022-1.454-.121-.507-.111-1.02-.21-1.468-.28a25.498 25.498 0 0 0-1.484-.184c-.512-.061-1.047-.093-1.418-.331-.359-.224-.443-.715.104-1.217.516-.491 1.732-.922 3.219-.692 1.483.237 2.49 1.018 2.814 1.641.347.643.103 1.082-.313 1.184Z" fill="#1B1B25"/>
    <path d="M197.876 180.323c-4.103 0-6.839-3.219-6.874-3.261a.5.5 0 0 1 .768-.641c.159.19 3.954 4.622 9.255 2.175a.5.5 0 1 1 .419.909c-1.269.587-2.468.818-3.568.818ZM200.861 173.344a.5.5 0 0 1-.096-.99l3.517-.692a4.043 4.043 0 0 0 3.183-4.743 1.462 1.462 0 0 0-1.713-1.15 3.42 3.42 0 0 1-4.01-2.691l-.849-4.313a.5.5 0 1 1 .981-.193l.849 4.314a2.418 2.418 0 0 0 2.835 1.903c.647-.126 1.3.005 1.845.371.545.366.915.922 1.042 1.567a5.046 5.046 0 0 1-3.971 5.918l-3.517.692a.761.761 0 0 1-.096.007Z" fill="#FB8E77"/>
    <path d="M190.899 168.071a1.241 1.241 0 0 1-1.444-.989l-.276-1.475a1.241 1.241 0 0 1 .989-1.444 1.241 1.241 0 0 1 1.444.988l.276 1.475c.125.67-.32 1.32-.989 1.445ZM211.869 164.664a1.241 1.241 0 0 1-1.444-.988l-.276-1.475a1.241 1.241 0 0 1 .988-1.444 1.241 1.241 0 0 1 1.444.989l.276 1.475a1.24 1.24 0 0 1-.988 1.443Z" fill="#1B1B25"/>
    <path opacity=".17" d="m190.026 173.645-4.223.475a1.537 1.537 0 0 1-1.694-1.351 1.537 1.537 0 0 1 1.352-1.694l4.222-.475c.837-.094 1.6.514 1.694 1.351.095.837-.514 1.6-1.351 1.694ZM218.419 169.172l-4.223.475a1.537 1.537 0 0 1-1.694-1.351 1.537 1.537 0 0 1 1.352-1.694l4.223-.475c.837-.094 1.6.514 1.694 1.351.093.838-.515 1.6-1.352 1.694Z" fill="#FF887C"/>
    <path d="M205.913 191.206a.494.494 0 0 1-.294-.096c-1.968-1.439-4.011-.053-4.097.006a.5.5 0 0 1-.574-.819c.926-.651 3.217-1.489 5.261.005a.501.501 0 0 1-.296.904Z" fill="#FB8E77"/>
  </g>
  <defs>
    <clipPath id="a">
      <path fill="#fff" d="M0 0h687v359H0z"/>
    </clipPath>
  </defs>
</svg>
