<svg width="1140" height="784" viewBox="0 0 1140 784" fill="none" xmlns="http://www.w3.org/2000/svg">
<g clip-path="url(#clip0)">
<path opacity="0.1" d="M793.53 235.6C794.395 234.368 794.872 232.905 794.9 231.4C794.9 222.28 776.32 214.9 753.4 214.9C730.48 214.9 711.9 222.28 711.9 231.4C711.941 233.105 712.542 234.75 713.61 236.08C688.09 238.93 670.9 244.27 670.9 250.4C670.9 259.51 708.9 266.9 755.9 266.9C802.9 266.9 840.9 259.51 840.9 250.4C840.85 243.95 821.53 238.3 793.53 235.6Z" fill="#3B82F6"/>
<g opacity="0.2">
<path opacity="0.2" d="M910.08 713.82C909.721 716.424 909.577 719.053 909.65 721.68C927.077 721.96 944.58 722.547 962.16 723.44C962.28 722.76 962.4 722.05 962.5 721.34C963.627 714.011 962.781 706.514 960.05 699.62C956.43 690.79 949.68 684.48 941.23 683.27C932.78 682.06 924.54 686.21 918.59 693.62C914.001 699.473 911.063 706.448 910.08 713.82Z" fill="#3F3D56"/>
<path opacity="0.2" d="M968.579 679.448C971.303 660.501 961.776 643.454 947.3 641.373C932.825 639.292 918.882 652.966 916.158 671.913C913.434 690.86 922.961 707.907 937.437 709.988C951.913 712.069 965.856 698.396 968.579 679.448Z" fill="#3F3D56"/>
<path opacity="0.2" d="M974.602 637.524C977.326 618.576 967.799 601.529 953.323 599.449C938.848 597.368 924.905 611.041 922.181 629.988C919.457 648.936 928.984 665.983 943.46 668.063C957.936 670.144 971.879 656.471 974.602 637.524Z" fill="#3F3D56"/>
<path opacity="0.2" d="M980.627 595.589C983.351 576.642 973.824 559.595 959.348 557.514C944.872 555.433 930.93 569.106 928.206 588.054C925.482 607.001 935.009 624.048 949.485 626.129C963.961 628.21 977.904 614.537 980.627 595.589Z" fill="#3F3D56"/>
<path opacity="0.2" d="M986.652 553.654C989.375 534.707 979.848 517.66 965.372 515.579C950.897 513.499 936.954 527.172 934.23 546.119C931.507 565.067 941.034 582.113 955.509 584.194C969.985 586.275 983.928 572.602 986.652 553.654Z" fill="#3F3D56"/>
<path opacity="0.2" d="M1099.74 277.02C1103.98 272.961 1107.93 268.618 1111.57 264.02L1044.33 242.85L1118.73 254.11C1128.11 239.586 1134.43 223.301 1137.3 206.251C1140.17 189.201 1139.53 171.744 1135.42 154.95L1028.06 192.42L1129.93 137.95C1123.44 121.795 1113.69 107.15 1101.29 94.9269C1088.89 82.7036 1074.11 73.164 1057.86 66.9022C1041.62 60.6404 1024.26 57.7905 1006.86 58.53C989.467 59.2694 972.41 63.5825 956.755 71.2004C941.099 78.8183 927.18 89.5781 915.863 102.809C904.547 116.041 896.076 131.46 890.978 148.108C885.88 164.756 884.264 182.274 886.231 199.574C888.197 216.873 893.705 233.582 902.41 248.66C895.812 254.955 889.912 261.942 884.81 269.5L967.53 328.78L876.82 283.1C867.285 301.919 862.593 322.819 863.169 343.908C863.745 364.997 869.572 385.61 880.12 403.88C862.895 420.303 850.638 441.242 844.752 464.302C838.865 487.363 839.587 511.614 846.834 534.284C854.08 556.954 867.56 577.127 885.732 592.497C903.903 607.866 926.033 617.813 949.59 621.199C973.148 624.584 997.183 621.273 1018.95 611.642C1040.71 602.012 1059.33 586.451 1072.67 566.74C1086 547.029 1093.53 523.962 1094.37 500.177C1095.22 476.392 1089.35 452.849 1077.45 432.24C1098.03 412.613 1111.42 386.639 1115.46 358.489C1119.51 330.339 1113.97 301.647 1099.75 277.02H1099.74Z" fill="#3B82F6"/>
<path opacity="0.1" d="M864.4 322.41C860.307 350.561 865.843 379.269 880.11 403.88C862.884 420.303 850.628 441.242 844.741 464.302C838.855 487.363 839.576 511.614 846.823 534.284C854.07 556.954 867.55 577.127 885.721 592.497C903.893 607.866 926.022 617.813 949.58 621.199C973.138 624.584 997.173 621.273 1018.94 611.642C1040.7 602.012 1059.32 586.451 1072.66 566.74C1085.99 547.029 1093.51 523.962 1094.36 500.177C1095.21 476.392 1089.34 452.849 1077.44 432.24C1097.33 413.3 866.42 308.32 864.4 322.41Z" fill="black"/>
</g>
<g opacity="0.2">
<path opacity="0.2" d="M166.46 676.75C166.855 679.009 167.44 681.23 168.21 683.39C182.417 678.817 196.77 674.483 211.27 670.39C211.19 669.79 211.1 669.17 210.99 668.55C209.963 662.181 207.28 656.195 203.21 651.19C197.92 644.86 190.76 641.48 183.58 642.81C176.4 644.14 170.82 649.81 167.97 657.65C165.813 663.777 165.292 670.36 166.46 676.75V676.75Z" fill="#3F3D56"/>
<path opacity="0.2" d="M187.218 666.07C199.568 664.116 207.461 649.138 204.847 632.614C202.233 616.091 190.102 604.28 177.752 606.234C165.402 608.188 157.509 623.167 160.123 639.69C162.737 656.213 174.868 668.024 187.218 666.07Z" fill="#3F3D56"/>
<path opacity="0.2" d="M183.959 630.392C196.337 628.392 204.202 613.344 201.526 596.783C198.849 580.221 186.645 568.417 174.266 570.418C161.887 572.418 154.022 587.466 156.699 604.027C159.375 620.589 171.58 632.393 183.959 630.392Z" fill="#3F3D56"/>
<path opacity="0.2" d="M174.613 593.125C186.964 591.171 194.856 576.193 192.242 559.669C189.628 543.146 177.497 531.335 165.147 533.289C152.797 535.243 144.904 550.222 147.518 566.745C150.132 583.268 162.263 595.079 174.613 593.125Z" fill="#3F3D56"/>
<path opacity="0.2" d="M168.322 556.646C180.672 554.692 188.565 539.714 185.951 523.19C183.337 506.667 171.206 494.856 158.856 496.81C146.505 498.764 138.613 513.743 141.227 530.266C143.841 546.789 155.972 558.6 168.322 556.646Z" fill="#3F3D56"/>
<path opacity="0.2" d="M203.82 261.81C206.177 257.287 208.225 252.61 209.95 247.81L149.75 248.75L213.11 237.58C217.085 222.071 217.726 205.895 214.99 190.12C212.603 176.16 207.588 162.779 200.21 150.69L123.1 211.4L191.22 138.07C167.14 108.88 128.92 93.31 89.48 100.57C30.53 111.39 -8.73995 169.07 1.67005 229.37C5.77894 253.729 17.9159 276.014 36.15 292.68C32.4633 299.733 29.5369 307.158 27.42 314.83L110.34 341.24L24.53 328.33C22.7426 340.295 22.8844 352.47 24.95 364.39C29.0589 388.749 41.1959 411.034 59.43 427.7C47.9189 449.724 43.9927 474.929 48.26 499.41C58.67 559.72 114.86 599.81 173.77 588.96C232.68 578.11 271.99 520.44 261.58 460.13C257.467 435.775 245.33 413.495 227.1 396.83C238.609 374.802 242.535 349.595 238.27 325.11C234.165 300.759 222.039 278.479 203.82 261.81V261.81Z" fill="#3B82F6"/>
<path opacity="0.1" d="M24.9802 364.39C29.089 388.749 41.226 411.034 59.4602 427.7C47.949 449.724 44.0228 474.929 48.2902 499.41C58.7002 559.72 114.89 599.81 173.8 588.96C232.71 578.11 272.02 520.44 261.61 460.13C257.497 435.775 245.361 413.495 227.13 396.83C238.22 375.61 22.8602 352.14 24.9802 364.39Z" fill="black"/>
</g>
<path d="M113.85 593.4C113.85 645.71 146.66 688.03 187.21 688.03Z" fill="#46455B"/>
<path d="M187.21 688.03C187.21 635.14 223.83 592.34 269.09 592.34Z" fill="#1EDC26"/>
<path d="M140.43 598.14C140.43 647.83 161.35 688.03 187.21 688.03Z" fill="#1EDC26"/>
<path d="M187.21 688.03C187.21 620.45 229.54 565.76 281.85 565.76Z" fill="#46455B"/>
<path opacity="0.1" d="M527.85 744.55C810.068 744.55 1038.85 736.943 1038.85 727.56C1038.85 718.177 810.068 710.57 527.85 710.57C245.633 710.57 16.8501 718.177 16.8501 727.56C16.8501 736.943 245.633 744.55 527.85 744.55Z" fill="#3B82F6"/>
<path opacity="0.1" d="M178.74 701.46C189.057 701.46 197.42 700.045 197.42 698.3C197.42 696.555 189.057 695.14 178.74 695.14C168.423 695.14 160.06 696.555 160.06 698.3C160.06 700.045 168.423 701.46 178.74 701.46Z" fill="#3B82F6"/>
<path d="M166.19 683.62C166.19 683.62 176.85 683.3 180.06 681.01C183.27 678.72 196.44 676.01 197.24 679.66C198.04 683.31 213.24 697.9 201.24 697.99C189.24 698.08 173.3 696.12 170.09 694.17C166.88 692.22 166.19 683.62 166.19 683.62Z" fill="#A8A8A8"/>
<path opacity="0.2" d="M201.44 696.72C189.44 696.81 173.49 694.84 170.29 692.89C167.85 691.41 166.87 686.07 166.55 683.61H166.19C166.19 683.61 166.87 692.21 170.07 694.16C173.27 696.11 189.2 698.08 201.22 697.98C204.69 697.98 205.89 696.72 205.83 694.89C205.35 696.01 204.02 696.7 201.44 696.72Z" fill="black"/>
<path d="M687.53 198.95C673.18 128.23 611.68 74.95 536.86 74.95C477.41 74.95 426.16 108.77 400.53 157.95C339.03 164.1 290.86 216.37 290.86 279.95C290.86 347.59 346.2 402.95 413.86 402.95H680.36C736.73 402.95 782.86 356.82 782.86 300.45C782.968 274.549 773.146 249.591 755.413 230.711C737.681 211.831 713.387 200.464 687.53 198.95V198.95ZM569.65 259.4V337.3H504.05V259.4H434.35L536.85 156.95L639.35 259.45L569.65 259.4Z" fill="#3B82F6"/>
<path d="M436.61 247.7C435.61 241.99 436.1 235.84 433.48 230.7C433.226 230.093 432.816 229.565 432.29 229.17C431.637 228.817 430.901 228.648 430.16 228.68C427.79 228.59 425.43 228.56 423.06 228.62C422.4 228.62 421.62 228.72 421.28 229.3C421.24 229.362 421.21 229.429 421.19 229.5C418.48 226.5 416.43 222.71 413.51 219.91C413.93 219.77 414.34 219.64 414.77 219.53C414.77 219.24 414.67 218.97 414.61 218.69C414.61 218.6 414.56 218.52 414.54 218.44C414.52 218.36 414.45 218.06 414.39 217.87C414.33 217.68 414.33 217.68 414.29 217.59C414.239 217.41 414.179 217.234 414.11 217.06C414.11 216.97 414.04 216.88 414 216.79L413.79 216.26L413.67 216.01C413.59 215.83 413.51 215.65 413.42 215.48L413.3 215.26C413.21 215.07 413.11 214.88 413.01 214.69L412.91 214.51C412.8 214.31 412.68 214.11 412.57 213.9C412.541 213.867 412.517 213.83 412.5 213.79C412.37 213.56 412.23 213.33 412.09 213.11C410.95 211.25 409.69 209.42 408.76 207.51C407.13 204.15 406.59 200.36 405.5 196.78C404.41 193.2 402.5 189.56 399.26 187.85C397.69 187.05 395.59 186.34 395.44 184.57C395.435 184.001 395.555 183.438 395.79 182.92C396.24 181.773 396.785 180.666 397.42 179.61C397.66 179.23 397.91 178.85 398.16 178.47L398.36 178.2C398.56 177.92 398.77 177.64 398.98 177.38L399.24 177.05C399.45 176.79 399.67 176.55 399.89 176.3L400.16 176.01C400.47 175.68 400.78 175.36 401.11 175.01C401.414 174.776 401.654 174.47 401.81 174.12C401.897 173.773 401.914 173.413 401.86 173.06C401.7 170.2 403.2 167.53 404.86 165.23C406.52 162.93 408.48 160.75 409.43 158.06C409.54 157.75 409.63 157.44 409.71 157.12C409.739 157.018 409.763 156.915 409.78 156.81C409.83 156.6 409.87 156.39 409.91 156.17L409.97 155.81C409.97 155.61 410.02 155.41 410.04 155.22V154.83V154.24V153.85C410.04 153.66 410.04 153.46 410.04 153.26C410.04 153.06 410.04 153.01 410.04 152.88C410.04 152.75 410.04 152.46 409.99 152.25V151.91C409.99 151.67 409.92 151.42 409.89 151.18C409.89 151.1 409.89 151.02 409.89 150.94C409.843 150.613 409.783 150.28 409.71 149.94C409.234 147.816 408.619 145.724 407.87 143.68C407.472 142.424 406.963 141.206 406.35 140.04C406.72 139.97 407.1 139.89 407.47 139.79C407.176 139.33 406.906 138.857 406.66 138.37C408.962 134.98 410.688 131.233 411.77 127.28C412.343 124.456 412.678 121.59 412.77 118.71C413.32 110.05 413.88 101.35 413.16 92.71V92.37C413.43 90.5144 413.45 88.631 413.22 86.77C412.989 83.1298 411.914 79.5933 410.08 76.44C408.14 73.38 404.94 70.68 401.38 70.32C400.793 70.981 400.143 71.5837 399.44 72.12C398.368 71.1787 397.582 69.9557 397.17 68.59C401.327 67.9376 405.154 65.9386 408.065 62.8999C410.975 59.8612 412.807 55.951 413.28 51.77C413.28 51.46 413.35 51.14 413.37 50.83C413.37 50.7 413.37 50.57 413.37 50.44C413.37 50.31 413.37 50.07 413.37 49.89C413.37 49.71 413.37 49.56 413.37 49.39V48.98C413.37 48.79 413.37 48.59 413.37 48.4C413.37 48.21 413.37 48.19 413.37 48.09C413.37 47.99 413.37 47.65 413.31 47.44C413.315 47.3634 413.315 47.2866 413.31 47.21L413.22 46.51V46.36C413.22 46.11 413.14 45.86 413.09 45.61V45.53C413.04 45.26 412.98 45 412.91 44.73C412.462 42.9099 411.752 41.1648 410.8 39.55C411.582 37.7833 412.095 35.909 412.32 33.99C412.32 33.64 412.39 33.3 412.41 32.99C412.43 32.68 412.41 32.55 412.41 32.33C412.41 32.11 412.41 32.11 412.41 32.01C412.41 31.72 412.41 31.43 412.41 31.15C412.405 31.1202 412.405 31.0898 412.41 31.06C412.265 26.2543 410.345 21.6727 407.02 18.2C407.402 17.5662 407.72 16.8963 407.97 16.2V16.2C408.05 15.99 408.12 15.78 408.18 15.56C408.24 15.35 408.3 15.15 408.35 14.94V14.89L408.47 14.32C408.464 14.2869 408.464 14.2531 408.47 14.22C408.47 14 408.54 13.77 408.57 13.54C408.6 13.31 408.57 13.07 408.63 12.84C408.63 12.77 408.63 12.69 408.63 12.62C408.63 12.55 408.63 12.29 408.63 12.13V11.89C408.63 11.73 408.63 11.56 408.63 11.4C408.63 11.24 408.63 11.26 408.63 11.19C408.461 8.21917 407.18 5.42094 405.04 3.35313C402.9 1.28532 400.06 0.0998236 397.085 0.0329583C394.11 -0.0339069 391.219 1.02277 388.989 2.99235C386.758 4.96193 385.352 7.69974 385.05 10.66C384.905 11.8687 384.943 13.0923 385.16 14.29C382.253 15.708 379.747 17.8322 377.873 20.4683C375.998 23.1044 374.815 26.1684 374.43 29.38C374.304 30.4551 374.267 31.5388 374.32 32.62C372.595 35.3275 371.564 38.4189 371.32 41.62V41.62C371.32 41.74 371.32 41.86 371.32 41.98C371.32 42.38 371.27 42.79 371.27 43.19C371.261 46.1518 371.93 49.0765 373.225 51.7404C374.519 54.4042 376.406 56.7369 378.74 58.56C379.716 60.1358 381.002 61.4967 382.52 62.56C382.794 63.3744 382.998 64.2108 383.13 65.06C383.242 66.2017 383.092 67.3538 382.694 68.4295C382.296 69.5052 381.658 70.4764 380.83 71.27C380.4 71.63 379.92 71.93 379.47 72.27C379.016 72.1403 378.534 72.1403 378.08 72.27C372.92 73.89 367.98 77.1 365.61 82.01C365.085 83.127 364.669 84.2925 364.37 85.49L364.09 85.92C360.956 90.825 358.702 96.2397 357.43 101.92C356.78 104.83 356.37 107.85 355.01 110.5C354.684 111.053 354.419 111.64 354.22 112.25C354.105 113.182 354.064 114.122 354.1 115.06C353.96 116.76 352.97 118.27 352.64 119.94C352.44 120.94 352.48 121.94 352.31 122.94C351.834 124.658 351.208 126.331 350.44 127.94C349.38 130.88 349.39 134.11 348.6 137.14C348.504 137.639 348.292 138.108 347.98 138.51C347.355 138.998 346.651 139.376 345.9 139.63C345.35 139.974 344.88 140.431 344.519 140.971C344.159 141.51 343.917 142.12 343.81 142.76C343.602 144.05 343.578 145.363 343.74 146.66L344.13 151.73L338.45 153.45L329.13 156.3C326.399 156.991 323.789 158.093 321.39 159.57C319.252 161.059 317.564 163.107 316.51 165.49C315.565 167.974 314.956 170.574 314.7 173.22C313.799 180.622 312.195 187.922 309.91 195.02C309.72 195.56 309.52 196.11 309.32 196.65L308.69 198.24C308.64 198.35 308.59 198.46 308.55 198.57L308.01 199.84C307.77 200.38 307.52 200.91 307.26 201.44L329.09 208.72C329.09 208.98 329.14 209.26 329.18 209.57C329.94 214.93 329.57 220.37 330.27 225.74C330.36 226.633 330.565 227.51 330.88 228.35C330.326 228.83 329.926 229.463 329.73 230.17C329.483 231.314 329.446 232.493 329.62 233.65C329.87 236.39 330.11 239.13 330.36 241.87C330.478 242.867 330.478 243.874 330.36 244.87C330.09 246.68 329.05 248.27 328.48 250C327.91 251.73 327.94 253.95 329.37 255C329.869 255.341 330.447 255.549 331.05 255.603C331.652 255.657 332.258 255.556 332.81 255.31C333.912 254.803 334.886 254.055 335.66 253.12C340.05 248.24 342.02 241.65 345.43 236.02C346.308 234.722 347.09 233.362 347.77 231.95C348.24 230.86 348.54 229.7 348.92 228.57C349.445 227.065 350.073 225.598 350.8 224.18C351.21 223.37 352.8 221.42 352.44 220.52C351.88 218.97 345.89 217.61 344.44 217.13C343.515 216.717 342.468 216.671 341.51 217C341.366 217.069 341.231 217.156 341.11 217.26L340.6 210.65C341.49 210.57 342.37 210.46 343.24 210.31C343.24 209.07 343.21 207.82 343.15 206.56C343.15 205.42 343.1 204.27 343.07 203.12C343.01 200.32 342.95 197.52 342.88 194.77C342.862 193.149 342.758 191.53 342.57 189.92C342.23 187.47 341.48 185.07 341.24 182.6C341.601 182.314 342.027 182.121 342.48 182.04V182.04C343.181 181.928 343.893 181.901 344.6 181.96H345.16C348.263 181.915 351.304 181.075 353.99 179.52C356.74 178.09 359.29 176.3 361.99 174.83L362.99 174.3L363.37 174.11L364.01 173.79L364.54 173.54L364.66 173.48C366.25 172.72 367.86 171.98 369.4 171.15C369.504 171.32 369.618 171.483 369.74 171.64C370.113 172.148 370.629 172.534 371.222 172.75C371.814 172.965 372.458 173 373.07 172.85C371.18 177.4 368.96 181.8 368.4 186.72C367.58 193.83 370.4 200.72 373.21 207.34L382.1 228.34C383.1 230.66 384.39 233.26 386.82 233.81C388.364 234.018 389.934 233.705 391.28 232.92C395.35 230.98 399.01 228.2 402.74 225.6L402.89 225.72C406.26 228.38 408.37 232.09 410.7 235.64L416.93 245.88C416.887 246.393 416.973 246.909 417.18 247.38C417.634 248.228 418.226 248.995 418.93 249.65C422.89 253.915 425.499 259.255 426.43 265C426.511 266.471 426.936 267.903 427.67 269.18C429.34 271.5 432.9 271.35 435.41 270.03C436.185 269.675 436.854 269.124 437.35 268.43C437.771 267.685 438.037 266.861 438.13 266.01C438.588 263.893 438.84 261.736 438.88 259.57C438.84 255.64 437.33 251.73 436.61 247.7ZM400.84 59.28C401.276 58.9928 401.697 58.6823 402.1 58.35C401.256 60.8888 399.893 63.2247 398.1 65.21V65.21C397.68 65.67 397.23 66.1 396.77 66.52V66.2C396.72 65.2 396.77 64.09 396.77 63.03C398.373 62.0773 399.759 60.8 400.84 59.28V59.28ZM365.53 138.19L365.59 138C365.944 138.256 366.252 138.57 366.5 138.93C366.258 139.467 366.144 140.053 366.168 140.642C366.193 141.23 366.354 141.805 366.64 142.32C367.16 143.2 368.1 144.02 367.9 145.03C367.7 146.04 366.42 146.44 365.38 146.61C364.01 146.83 362.66 147.08 361.31 147.35C361.31 147.35 361.31 147.35 361.31 147.28C361.34 146.153 361.188 145.029 360.86 143.95C363.19 142.95 364.63 140.57 365.53 138.19Z" fill="url(#paint0_linear)"/>
<path d="M407.15 21.77C408.048 20.251 408.595 18.551 408.753 16.7937C408.911 15.0364 408.676 13.2659 408.063 11.6112C407.451 9.95652 406.477 8.45913 405.213 7.22804C403.949 5.99694 402.427 5.0631 400.757 4.49445C399.086 3.92581 397.31 3.73666 395.558 3.94079C393.805 4.14491 392.12 4.73717 390.625 5.67447C389.13 6.61176 387.863 7.87051 386.916 9.35914C385.969 10.8478 385.366 12.5288 385.15 14.28C385.001 15.4751 385.038 16.6862 385.26 17.87C381.862 19.4801 379.018 22.0624 377.088 25.2897C375.159 28.5171 374.23 32.2445 374.42 36C372.813 38.4902 371.807 41.3207 371.484 44.267C371.161 47.2133 371.528 50.1945 372.558 52.974C373.587 55.7536 375.25 58.2551 377.414 60.2802C379.578 62.3053 382.185 63.7983 385.026 64.6409C387.868 65.4835 390.867 65.6524 393.785 65.1343C396.704 64.6161 399.461 63.4252 401.839 61.656C404.217 59.8867 406.151 57.5877 407.485 54.9413C408.82 52.295 409.52 49.374 409.53 46.41C409.53 46.1 409.53 45.8 409.53 45.5C411.893 41.8674 412.949 37.539 412.526 33.2265C412.102 28.9139 410.224 24.8737 407.2 21.77H407.15Z" fill="#46455B"/>
<g opacity="0.1">
<path opacity="0.1" d="M385.12 14.86L385.28 14.77C385.24 14.565 385.21 14.3581 385.19 14.15C385.185 14.1932 385.185 14.2368 385.19 14.28C385.156 14.472 385.133 14.6656 385.12 14.86V14.86Z" fill="black"/>
<path opacity="0.1" d="M412.43 34.28C412.085 37.1808 411.075 39.9628 409.48 42.41C409.48 42.71 409.48 43.01 409.48 43.31C409.457 48.2212 407.541 52.9343 404.13 56.4685C400.72 60.0026 396.078 62.0857 391.171 62.2841C386.264 62.4825 381.469 60.781 377.785 57.5336C374.1 54.2863 371.81 49.7433 371.39 44.85C371.39 45.37 371.32 45.85 371.32 46.41C371.32 51.4703 373.33 56.3234 376.908 59.9016C380.487 63.4798 385.34 65.49 390.4 65.49C395.46 65.49 400.313 63.4798 403.892 59.9016C407.47 56.3234 409.48 51.4703 409.48 46.41C409.48 46.1 409.48 45.8 409.48 45.5C411.079 43.0546 412.089 40.2717 412.43 37.37C412.588 36.0927 412.611 34.8023 412.5 33.52C412.53 33.77 412.47 34.03 412.43 34.28Z" fill="black"/>
<path opacity="0.1" d="M408.72 14.14C408.511 15.7443 407.976 17.289 407.15 18.68C407.49 19.02 407.8 19.38 408.15 19.74C408.455 18.8963 408.663 18.0207 408.77 17.13C408.884 16.1354 408.867 15.1303 408.72 14.14V14.14Z" fill="black"/>
</g>
<path d="M330.27 226.47C330.361 227.555 330.656 228.614 331.14 229.59C331.384 230.078 331.74 230.5 332.181 230.822C332.621 231.144 333.131 231.356 333.67 231.44C334.659 231.446 335.628 231.165 336.46 230.63C338.15 229.74 339.92 228.71 340.8 227.01C341.68 225.31 341.54 223.41 341.39 221.56L340.25 207.01C337.51 206.93 334.75 206.93 332 207.08C329.25 207.23 328.8 207.87 329.18 210.53C329.93 215.81 329.53 221.18 330.27 226.47Z" fill="#FBBEBE"/>
<path d="M410.89 236.3L417.42 246.86C417.704 247.476 418.217 247.957 418.85 248.2C419.317 248.27 419.795 248.186 420.21 247.96C422.324 246.853 424.181 245.312 425.66 243.44C426.844 242.338 427.743 240.966 428.28 239.44C428.492 238.594 428.484 237.708 428.256 236.866C428.028 236.024 427.589 235.254 426.98 234.63C426.224 233.957 425.403 233.361 424.53 232.85C419.36 229.36 417.03 222.74 411.93 219.16C411.645 218.92 411.299 218.764 410.93 218.71C410.552 218.737 410.186 218.861 409.87 219.07L402.87 222.89C399.87 224.54 400.8 224.74 403.1 226.52C406.45 229.14 408.53 232.8 410.89 236.3Z" fill="#FBBEBE"/>
<path d="M344.46 218.05C343.531 217.647 342.484 217.611 341.53 217.95C341.107 218.207 340.749 218.558 340.483 218.976C340.218 219.394 340.053 219.868 340 220.36C339.82 221.36 339.84 222.36 339.57 223.29C338.967 224.839 337.988 226.214 336.72 227.29C336.242 227.855 335.625 228.286 334.93 228.54C333.98 228.78 332.98 228.34 332.02 228.54C331.462 228.686 330.954 228.98 330.551 229.393C330.147 229.805 329.864 230.319 329.73 230.88C329.478 232.006 329.441 233.17 329.62 234.31L330.36 242.41C330.482 243.406 330.482 244.414 330.36 245.41C330.09 247.2 329.05 248.76 328.48 250.47C327.91 252.18 327.93 254.36 329.37 255.47C329.874 255.805 330.454 256.008 331.057 256.061C331.66 256.113 332.266 256.013 332.82 255.77C333.921 255.274 334.895 254.536 335.67 253.61C340.07 248.81 342.04 242.3 345.46 236.76C346.335 235.484 347.117 234.148 347.8 232.76C348.27 231.68 348.57 230.54 348.95 229.43C349.476 227.944 350.108 226.497 350.84 225.1C351.24 224.3 352.84 222.38 352.48 221.49C351.95 219.87 345.94 218.52 344.46 218.05Z" fill="#46455B"/>
<path d="M423.87 240.42C422.88 242.289 421.224 243.717 419.23 244.42C418.656 244.578 418.121 244.854 417.66 245.23C417.357 245.599 417.17 246.048 417.12 246.523C417.07 246.998 417.16 247.476 417.38 247.9C417.839 248.739 418.433 249.496 419.14 250.14C423.089 254.325 425.7 259.593 426.64 265.27C426.731 266.725 427.159 268.139 427.89 269.4C429.56 271.69 433.13 271.54 435.65 270.23C436.419 269.879 437.086 269.339 437.59 268.66C438.011 267.925 438.276 267.112 438.37 266.27C438.828 264.183 439.079 262.056 439.12 259.92C439.12 255.92 437.56 252.03 436.84 248.07C435.84 242.44 436.32 236.37 433.7 231.29C433.453 230.682 433.05 230.151 432.53 229.75C431.872 229.404 431.133 229.238 430.39 229.27C428.03 229.18 425.65 229.16 423.28 229.21C422.62 229.21 421.84 229.31 421.5 229.88C421.381 230.198 421.342 230.541 421.388 230.878C421.433 231.214 421.561 231.535 421.76 231.81C423.21 234.68 425.59 236.95 423.87 240.42Z" fill="#46455B"/>
<path d="M367.61 139.52C366.949 140.068 366.501 140.83 366.344 141.674C366.186 142.518 366.33 143.391 366.75 144.14C367.28 145.01 368.22 145.82 368.01 146.82C367.8 147.82 366.53 148.2 365.49 148.37C356.31 149.83 347.37 152.52 338.49 155.2L329.15 158.01C326.415 158.685 323.799 159.771 321.39 161.23C319.257 162.686 317.568 164.704 316.51 167.06C315.561 169.506 314.949 172.069 314.69 174.68C313.29 184.23 311.5 193.86 307.24 202.52L329.87 209.95C332.067 210.754 334.343 211.324 336.66 211.65C338.868 211.838 341.091 211.731 343.27 211.33C343.13 206.28 343.04 201.07 342.9 196.01C342.887 194.412 342.784 192.816 342.59 191.23C342.25 188.81 341.5 186.45 341.26 184.01C342.26 183.15 343.83 183.37 345.18 183.4C348.287 183.358 351.333 182.536 354.04 181.01C356.78 179.59 359.34 177.83 362.04 176.38C366.59 173.97 371.77 172.38 375.25 168.55C373.48 175.3 369.25 181.18 368.48 188.11C367.71 195.04 370.48 201.96 373.31 208.43L382.22 229.11C383.22 231.39 384.51 233.96 386.94 234.5C388.486 234.702 390.056 234.393 391.41 233.62C399.61 229.78 406.17 222.55 414.93 220.25C414.27 215.91 410.85 212.32 408.93 208.39C407.29 205.08 406.76 201.34 405.67 197.81C404.58 194.28 402.67 190.69 399.41 189.01C397.84 188.22 395.73 187.52 395.59 185.77C395.577 185.207 395.697 184.648 395.94 184.14C397.11 181.188 398.932 178.539 401.27 176.39C401.567 176.154 401.807 175.853 401.97 175.51C402.047 175.182 402.064 174.844 402.02 174.51C401.85 171.69 403.36 169.06 405.02 166.79C406.68 164.52 408.65 162.37 409.6 159.72C411.23 155.15 409.6 150.13 408 145.56C407.474 143.664 406.562 141.897 405.32 140.37C403.22 138.13 399.96 137.48 396.9 137.14C387.05 136.02 375.46 133.43 367.61 139.52Z" fill="#46455B"/>
<g opacity="0.1">
<path opacity="0.1" d="M405.05 159.53C403.37 161.8 401.86 164.43 402.05 167.25C402.094 167.584 402.077 167.922 402 168.25C401.837 168.593 401.597 168.894 401.3 169.13C398.962 171.279 397.14 173.928 395.97 176.88C395.727 177.388 395.608 177.947 395.62 178.51C395.724 179.039 395.962 179.533 396.312 179.943C396.663 180.353 397.113 180.665 397.62 180.85C398.638 179.185 399.884 177.671 401.32 176.35C401.617 176.114 401.857 175.813 402.02 175.47C402.097 175.142 402.114 174.804 402.07 174.47C401.9 171.65 403.41 169.02 405.07 166.75C406.73 164.48 408.7 162.33 409.65 159.68C410.469 157.087 410.553 154.317 409.89 151.68C409.823 151.94 409.743 152.2 409.65 152.46C408.68 155.11 406.74 157.27 405.05 159.53Z" fill="black"/>
<path opacity="0.1" d="M366.58 140.89C366.912 140.823 367.22 140.668 367.472 140.441C367.723 140.214 367.909 139.923 368.01 139.6C368.03 139.471 368.03 139.339 368.01 139.21L367.58 139.52C367.139 139.887 366.795 140.358 366.58 140.89V140.89Z" fill="black"/>
<path opacity="0.1" d="M336.66 204.43C334.343 204.104 332.067 203.534 329.87 202.73L309.87 196.17C309.114 198.338 308.229 200.458 307.22 202.52L329.87 209.95C332.067 210.754 334.343 211.324 336.66 211.65C338.868 211.838 341.091 211.731 343.27 211.33C343.2 208.96 343.15 206.55 343.09 204.14C340.968 204.516 338.807 204.614 336.66 204.43V204.43Z" fill="black"/>
<path opacity="0.1" d="M391.44 226.4C390.086 227.173 388.516 227.482 386.97 227.28C384.54 226.74 383.23 224.17 382.25 221.89L373.34 201.21C371.34 196.66 369.39 191.93 368.67 187.08C368.61 187.42 368.56 187.76 368.51 188.08C367.7 195.08 370.51 201.93 373.34 208.4L382.25 229.08C383.25 231.36 384.54 233.93 386.97 234.47C388.516 234.672 390.086 234.363 391.44 233.59C399.64 229.75 406.2 222.52 414.96 220.22C414.504 217.949 413.589 215.795 412.27 213.89C404.81 216.82 398.78 222.95 391.44 226.4Z" fill="black"/>
<path opacity="0.1" d="M375.28 161.33C371.8 165.13 366.62 166.75 362.07 169.16C359.34 170.61 356.78 172.37 354.07 173.79C351.364 175.319 348.318 176.144 345.21 176.19C343.86 176.19 342.34 175.93 341.29 176.79C341.51 179.04 342.16 181.23 342.53 183.46C343.418 183.34 344.317 183.32 345.21 183.4C348.317 183.358 351.363 182.536 354.07 181.01C356.81 179.59 359.37 177.83 362.07 176.38C365.07 174.79 368.34 173.55 371.22 171.79C372.82 168.404 374.177 164.909 375.28 161.33V161.33Z" fill="black"/>
</g>
<path d="M383.22 67.95C383.33 69.0766 383.18 70.2134 382.781 71.2728C382.383 72.3321 381.746 73.2858 380.92 74.06C380.37 74.53 379.72 74.88 379.19 75.37C378.714 75.8577 378.349 76.4434 378.122 77.0864C377.895 77.7293 377.811 78.414 377.876 79.0928C377.941 79.7715 378.153 80.428 378.497 81.0164C378.841 81.6049 379.31 82.1112 379.87 82.5C381.67 83.6 383.96 83.3 386.04 82.94C388.814 82.5573 391.532 81.8491 394.14 80.83C396.764 79.8016 398.997 77.9714 400.52 75.6C399.425 74.901 398.52 73.9414 397.887 72.8071C397.253 71.6727 396.911 70.3991 396.89 69.1C396.75 66.51 397.46 63.57 395.82 61.56C394.18 59.55 391.27 59.64 388.82 60.3C387.61 60.64 386.44 61.1 385.23 61.43C384.61 61.59 382.59 61.6 382.23 62.05C381.53 62.87 383.15 66.64 383.22 67.95Z" fill="#FBBEBE"/>
<path opacity="0.1" d="M383.22 67.95C383.33 69.0766 383.18 70.2134 382.781 71.2728C382.383 72.3321 381.746 73.2858 380.92 74.06C380.37 74.53 379.72 74.88 379.19 75.37C378.714 75.8577 378.349 76.4434 378.122 77.0864C377.895 77.7293 377.811 78.414 377.876 79.0928C377.941 79.7715 378.153 80.428 378.497 81.0164C378.841 81.6049 379.31 82.1112 379.87 82.5C381.67 83.6 383.96 83.3 386.04 82.94C388.814 82.5573 391.532 81.8491 394.14 80.83C396.764 79.8016 398.997 77.9714 400.52 75.6C399.425 74.901 398.52 73.9414 397.887 72.8071C397.253 71.6727 396.911 70.3991 396.89 69.1C396.75 66.51 397.46 63.57 395.82 61.56C394.18 59.55 391.27 59.64 388.82 60.3C387.61 60.64 386.44 61.1 385.23 61.43C384.61 61.59 382.59 61.6 382.23 62.05C381.53 62.87 383.15 66.64 383.22 67.95Z" fill="black"/>
<path d="M390.17 67.81C397.576 67.81 403.58 61.8061 403.58 54.4C403.58 46.9939 397.576 40.99 390.17 40.99C382.764 40.99 376.76 46.9939 376.76 54.4C376.76 61.8061 382.764 67.81 390.17 67.81Z" fill="#FBBEBE"/>
<path d="M347.83 157.26C347.594 158.328 347.167 159.344 346.57 160.26C345.002 163.036 344.437 166.267 344.97 169.41C345.251 170.968 345.912 172.433 346.894 173.675C347.876 174.917 349.149 175.897 350.6 176.53C351.206 176.832 351.881 176.969 352.557 176.927C353.233 176.885 353.886 176.665 354.45 176.29C352.66 173.96 352.56 170.78 352.67 167.84C352.638 167.292 352.767 166.746 353.04 166.27C353.115 166.158 353.212 166.063 353.325 165.989C353.438 165.916 353.564 165.866 353.697 165.843C353.829 165.819 353.965 165.823 354.097 165.853C354.228 165.884 354.351 165.941 354.46 166.02C354.41 167.872 354.769 169.712 355.51 171.41C355.79 172.06 356.27 172.78 356.99 172.76C357.99 172.76 358.28 171.35 358.24 170.33C358.09 166.17 357.88 161.84 355.88 158.2C355 156.952 354.325 155.571 353.88 154.11C353.865 153.59 353.683 153.088 353.36 152.68C353.141 152.506 352.884 152.386 352.61 152.33C351.46 152 348.72 150.99 347.77 152.07C346.82 153.15 348.01 155.88 347.83 157.26Z" fill="#FBBEBE"/>
<path d="M367.74 86.03C366.2 85.85 364.99 87.26 364.15 88.56C361.008 93.398 358.746 98.7539 357.47 104.38C356.82 107.25 356.42 110.23 355.05 112.84C354.724 113.383 354.459 113.959 354.26 114.56C354.149 115.482 354.109 116.412 354.14 117.34C354 119.01 353.01 120.5 352.68 122.15C352.48 123.15 352.52 124.15 352.34 125.15C352.04 126.87 351.09 128.41 350.48 130.06C349.41 132.96 349.42 136.14 348.63 139.13C348.534 139.62 348.321 140.08 348.01 140.47C347.48 141.06 346.62 141.2 345.93 141.58C345.38 141.916 344.908 142.365 344.546 142.898C344.184 143.431 343.939 144.035 343.83 144.67C343.621 145.94 343.598 147.233 343.76 148.51L344.38 156.44C345.01 156.17 345.38 155.44 345.96 155.01C346.96 154.21 348.35 154.39 349.59 154.61L351.4 154.94C353.25 155.27 355.26 155.7 356.4 157.16C357.34 155.68 356.81 153.51 358.25 152.53C358.72 152.21 359.31 152.11 359.8 151.83C360.267 151.527 360.654 151.117 360.929 150.633C361.204 150.149 361.359 149.606 361.38 149.05C361.41 147.936 361.258 146.825 360.93 145.76C363.25 144.76 364.69 142.43 365.6 140.08C366.596 137.235 367.319 134.302 367.76 131.32C369.85 119.53 371.76 107.66 371.96 95.69C372.092 93.6905 371.872 91.6834 371.31 89.76C370.69 87.86 369.73 86.25 367.74 86.03Z" fill="#3B82F6"/>
<path opacity="0.1" d="M367.74 86.03C366.2 85.85 364.99 87.26 364.15 88.56C361.008 93.398 358.746 98.7539 357.47 104.38C356.82 107.25 356.42 110.23 355.05 112.84C354.724 113.383 354.459 113.959 354.26 114.56C354.149 115.482 354.109 116.412 354.14 117.34C354 119.01 353.01 120.5 352.68 122.15C352.48 123.15 352.52 124.15 352.34 125.15C352.04 126.87 351.09 128.41 350.48 130.06C349.41 132.96 349.42 136.14 348.63 139.13C348.534 139.62 348.321 140.08 348.01 140.47C347.48 141.06 346.62 141.2 345.93 141.58C345.38 141.916 344.908 142.365 344.546 142.898C344.184 143.431 343.939 144.035 343.83 144.67C343.621 145.94 343.598 147.233 343.76 148.51L344.38 156.44C345.01 156.17 345.38 155.44 345.96 155.01C346.96 154.21 348.35 154.39 349.59 154.61L351.4 154.94C353.25 155.27 355.26 155.7 356.4 157.16C357.34 155.68 356.81 153.51 358.25 152.53C358.72 152.21 359.31 152.11 359.8 151.83C360.267 151.527 360.654 151.117 360.929 150.633C361.204 150.149 361.359 149.606 361.38 149.05C361.41 147.936 361.258 146.825 360.93 145.76C363.25 144.76 364.69 142.43 365.6 140.08C366.596 137.235 367.319 134.302 367.76 131.32C369.85 119.53 371.76 107.66 371.96 95.69C372.092 93.6905 371.872 91.6834 371.31 89.76C370.69 87.86 369.73 86.25 367.74 86.03Z" fill="black"/>
<path d="M401.53 73.19C399.317 75.5103 396.491 77.1541 393.38 77.93C390.282 78.6938 387.117 79.1593 383.93 79.32C382.951 79.4793 381.948 79.3934 381.01 79.07C380.549 78.8918 380.169 78.5489 379.946 78.1075C379.722 77.6661 379.67 77.1575 379.8 76.68C379.97 76.3928 380.089 76.078 380.15 75.75C380.15 74.93 378.93 74.86 378.15 75.1C372.99 76.7 368.04 79.86 365.66 84.71C364.459 87.5212 363.71 90.5047 363.44 93.55C362.32 101.55 361.2 109.62 362.7 117.55C363.51 121.76 365.05 125.85 365.14 130.13C365.2 132.53 364.79 134.92 364.81 137.32C364.742 138.16 364.968 138.998 365.45 139.69C365.82 140.12 366.38 140.39 366.64 140.9C367.07 141.74 366.49 142.9 367.06 143.67C367.77 144.61 369.23 143.93 370.2 143.27C375.066 139.968 380.941 138.491 386.79 139.1C393.79 139.85 400.79 143.6 407.61 141.72C407.258 141.211 406.957 140.668 406.71 140.1C403.31 128.94 403.54 116.45 408.63 105.95C410.36 102.36 412.63 98.95 413.33 95.01C413.599 93.1712 413.622 91.3049 413.4 89.46C413.163 85.8634 412.084 82.3729 410.25 79.27C408.32 76.2 405.11 73.55 401.53 73.19Z" fill="#3B82F6"/>
<path d="M369.1 160.71C368.558 162.171 368.297 163.722 368.33 165.28C368.283 166.767 368.357 168.255 368.55 169.73C368.667 170.993 369.12 172.201 369.86 173.23C370.237 173.737 370.755 174.12 371.349 174.332C371.944 174.544 372.588 174.574 373.2 174.42C373.679 174.218 374.107 173.913 374.452 173.525C374.798 173.138 375.054 172.678 375.2 172.18C375.488 171.177 375.702 170.154 375.84 169.12C376.42 166.12 378.02 163.22 378.05 160.12C378.07 159.752 378.012 159.384 377.88 159.04C377.3 157.77 374.45 156.34 373.06 156.55C371.34 156.82 369.74 159.24 369.1 160.71Z" fill="#FBBEBE"/>
<path opacity="0.1" d="M407.79 84.51C407.53 87.18 410.11 89.19 411.13 91.66C411.543 92.818 411.779 94.0316 411.83 95.26C412.55 103.79 411.99 112.36 411.43 120.89C411.348 123.731 411.014 126.559 410.43 129.34C408.99 135.17 405.43 140.23 401.98 145.13C401.458 145.933 400.851 146.677 400.17 147.35C399.152 148.175 398.021 148.849 396.81 149.35L384.91 155.12C383.418 155.778 382 156.592 380.68 157.55C379.147 158.75 377.943 160.319 377.18 162.11C374.87 160.93 372.47 159.87 370.18 158.69C369.64 158.41 369.03 158.05 368.94 157.45C368.82 156.65 369.66 156.08 370.24 155.45C371.32 154.38 371.65 152.79 372.24 151.39C374.16 146.79 378.97 143.85 380.71 139.19C381.38 137.4 381.58 135.37 382.77 133.87C383.447 133.118 384.209 132.447 385.04 131.87C386.864 130.314 388.538 128.59 390.04 126.72C390.721 126.015 391.279 125.2 391.69 124.31C392.071 122.938 392.203 121.509 392.08 120.09C392.17 115.43 394.28 111.09 395.57 106.61C396.78 102.4 397.29 97.98 398.88 93.89C400.47 89.8 403.53 85.61 407.79 84.51Z" fill="black"/>
<path d="M409.34 84.51C409.08 87.18 411.65 89.19 412.67 91.66C413.086 92.8175 413.326 94.0312 413.38 95.26C414.09 103.79 413.54 112.36 412.98 120.89C412.882 123.732 412.53 126.56 411.93 129.34C410.49 135.17 406.93 140.23 403.48 145.13C402.958 145.933 402.351 146.677 401.67 147.35C400.652 148.175 399.521 148.849 398.31 149.35L386.4 155.12C384.91 155.782 383.492 156.596 382.17 157.55C380.64 158.753 379.437 160.321 378.67 162.11C376.36 160.93 373.97 159.87 371.67 158.69C371.13 158.41 370.52 158.05 370.43 157.45C370.3 156.65 371.14 156.08 371.72 155.45C372.81 154.38 373.14 152.79 373.72 151.39C375.63 146.79 380.45 143.85 382.19 139.19C382.86 137.4 383.06 135.37 384.25 133.87C384.923 133.114 385.685 132.442 386.52 131.87C388.344 130.314 390.018 128.59 391.52 126.72C392.201 126.015 392.759 125.2 393.17 124.31C393.546 122.937 393.678 121.509 393.56 120.09C393.65 115.43 395.75 111.09 397.04 106.61C398.26 102.4 398.76 97.98 400.35 93.89C401.94 89.8 405.1 85.61 409.34 84.51Z" fill="#3B82F6"/>
<path d="M396.81 33.67C392.68 33.1683 388.499 34.036 384.91 36.14C385.44 36.14 385.97 36.14 386.5 36.26C390.467 36.7395 394.184 38.4524 397.125 41.1573C400.067 43.8622 402.085 47.4224 402.895 51.3356C403.705 55.2488 403.265 59.3176 401.639 62.9678C400.013 66.618 397.281 69.6654 393.83 71.68C398.733 71.8369 403.509 70.0992 407.164 66.8276C410.82 63.556 413.075 59.002 413.461 54.1114C413.847 49.2208 412.335 44.3694 409.238 40.5647C406.141 36.76 401.697 34.2944 396.83 33.68L396.81 33.67Z" fill="#46455B"/>
<path d="M402.68 44.28C403.144 45.3285 403.397 46.4585 403.423 47.605C403.448 48.7515 403.247 49.8917 402.83 50.96C402.74 50.69 402.64 50.42 402.52 50.15C400.16 44.9 392.9 42.73 386.29 45.3C384.533 45.924 382.927 46.9119 381.578 48.1992C380.228 49.4864 379.166 51.044 378.46 52.77C376.78 47.69 380.19 41.87 386.46 39.43C393.06 36.86 400.32 39.03 402.68 44.28Z" fill="#46455B"/>
<g opacity="0.1">
<path opacity="0.1" d="M402.72 50.55C402.416 46.8667 401.05 43.3507 398.786 40.4288C396.523 37.507 393.46 35.305 389.97 34.09C388.196 34.5096 386.491 35.1832 384.91 36.09C385.44 36.09 385.97 36.09 386.5 36.21C390.339 36.6741 393.945 38.2941 396.842 40.8551C399.739 43.4161 401.789 46.7972 402.72 50.55V50.55Z" fill="black"/>
<path opacity="0.1" d="M405.81 36.62C405.504 32.9374 404.136 29.4226 401.873 26.5012C399.611 23.5798 396.549 21.3772 393.06 20.16C391.284 20.6032 389.58 21.2968 388 22.22C388.53 22.22 389.06 22.22 389.6 22.34C393.43 22.8006 397.029 24.4121 399.923 26.9617C402.818 29.5114 404.87 32.8791 405.81 36.62V36.62Z" fill="black"/>
<path opacity="0.1" d="M405.89 15.83C405.698 13.6167 404.87 11.5061 403.506 9.75298C402.141 7.99983 400.298 6.67905 398.2 5.95001C397.126 6.2106 396.095 6.62488 395.14 7.18002C395.46 7.18002 395.78 7.18001 396.14 7.26001C398.439 7.54046 400.6 8.50865 402.34 10.0378C404.079 11.567 405.317 13.5858 405.89 15.83V15.83Z" fill="black"/>
<path opacity="0.1" d="M413.03 47.95C413.398 52.5252 412.107 57.0801 409.393 60.7818C406.679 64.4835 402.724 67.0848 398.25 68.11C396.961 69.5091 395.471 70.7089 393.83 71.67C396.788 71.778 399.731 71.1961 402.426 69.9702C405.121 68.7443 407.494 66.9082 409.356 64.6071C411.219 62.306 412.52 59.603 413.158 56.7119C413.796 53.8209 413.752 50.8211 413.03 47.95Z" fill="black"/>
</g>
<path d="M582.22 247.66C580.997 246.649 579.481 246.062 577.896 245.984C576.312 245.907 574.745 246.344 573.43 247.23C571.43 248.71 570.56 251.17 569.74 253.49C568.54 256.92 566.6 260.25 566.28 263.88C565.39 273.88 558.38 282.29 556.28 292.09C555.51 295.59 555.36 299.27 553.91 302.54C553.216 303.975 552.413 305.356 551.51 306.67C547.994 312.199 544.981 318.032 542.51 324.1C540.77 324.63 539.34 326.3 537.95 327.63C536.167 329.335 534.034 330.632 531.7 331.43C530.748 331.643 529.861 332.078 529.11 332.7C528.11 333.76 528.11 335.47 527.28 336.7C526.69 337.506 525.905 338.149 525 338.57C524.939 338.286 524.892 337.999 524.86 337.71C524.65 336.18 524.48 334.65 524.32 333.12C526.648 329.722 527.69 325.606 527.257 321.51C526.825 317.414 524.947 313.606 521.96 310.77C521.775 308.383 521.845 305.982 522.17 303.61C522.317 303.039 522.302 302.439 522.125 301.877C521.948 301.315 521.617 300.813 521.17 300.43C520.68 300.12 520.08 300.05 519.56 299.79C518.806 299.284 518.166 298.627 517.68 297.86C516.275 296.268 514.351 295.224 512.251 294.913C510.15 294.601 508.006 295.043 506.2 296.16C503.4 298.03 501.92 301.35 499.53 303.74C498.29 304.97 496.82 305.94 495.59 307.17C493.13 309.807 491.532 313.132 491.01 316.7C490.497 320.249 490.352 323.841 490.58 327.42C490.555 328.505 490.711 329.586 491.04 330.62C491.396 331.468 491.89 332.252 492.5 332.94C495.43 336.762 499.303 339.757 503.74 341.63C503.771 341.842 503.787 342.056 503.79 342.27C503.79 342.6 503.79 342.93 503.71 343.27L503.22 343.19C501.42 342.97 499.52 343.19 497.85 342.5C495 341.27 493.85 337.65 491.04 336.23C490.807 336.107 490.562 336.007 490.31 335.93C489.644 331.269 488.271 326.737 486.24 322.49C485.24 320.49 484.11 318.41 483.99 316.15C484.052 314.049 484.524 311.98 485.38 310.06C487.64 303.191 489.425 296.174 490.72 289.06C491.627 284.6 492.54 280.14 493.46 275.68C494.701 274.551 495.797 273.271 496.72 271.87C498.647 269.083 499.774 265.822 499.98 262.44C500.069 260.753 499.824 259.066 499.257 257.475C498.691 255.884 497.815 254.421 496.68 253.17C496.179 252.56 495.553 252.066 494.843 251.721C494.134 251.376 493.359 251.188 492.57 251.17C491.89 251.25 491.234 251.469 490.642 251.813C490.051 252.157 489.536 252.619 489.13 253.17C487.908 254.88 487.026 256.808 486.53 258.85C485.53 262.17 484.53 265.63 484.98 269.07C485.39 271.92 486.78 275.01 485.36 277.51C480.68 285.7 477.45 294.91 473.98 303.69C473.085 305.797 472.356 307.97 471.8 310.19C471.105 313.768 470.984 317.434 471.44 321.05C472.263 327.831 473.57 334.545 475.35 341.14C476.08 344.14 476.94 347.31 478.66 349.78C478.05 353.131 477.902 356.549 478.22 359.94C478.261 360.724 478.465 361.49 478.82 362.19C479.394 362.995 480.089 363.707 480.88 364.3C481.953 365.298 482.799 366.514 483.364 367.866C483.928 369.218 484.196 370.676 484.15 372.14C484.198 374.878 484.73 377.587 485.72 380.14C488.11 387.27 490.51 394.4 492.6 401.63C493.053 402.968 493.302 404.367 493.34 405.78C493.34 407.78 492.39 409.78 492.83 411.78C493.165 412.684 493.439 413.609 493.65 414.55C493.666 415.277 493.572 416.002 493.37 416.7C492.07 422.35 488.31 435.38 488.96 441.15L490.25 440.7C489.7 448.34 487.34 455.82 486.48 463.46C485.915 469.023 485.975 474.631 486.66 480.18C487.033 482.66 487.247 485.162 487.3 487.67C487.3 489.92 486.94 492.14 486.85 494.38C486.805 497.389 486.982 500.397 487.38 503.38C487.772 508.06 488.517 512.703 489.61 517.27C491.69 525.03 490.29 533.11 490.52 541.15C490.788 546.759 490.732 552.378 490.35 557.98C490.14 560.35 489.81 562.71 489.74 565.09C489.53 572.15 491.62 579.18 490.88 586.2C490.53 589.49 489.69 593.2 491.76 595.79C492.42 596.6 493.31 597.18 494.01 597.95C494.391 598.308 494.671 598.759 494.824 599.259C494.976 599.759 494.996 600.29 494.88 600.8C494.61 601.59 493.88 602.17 493.71 603C493.52 604.3 494.95 605.2 496.19 605.62L496.54 605.72C496.514 606.154 496.58 606.588 496.733 606.995C496.887 607.402 497.124 607.771 497.43 608.08C498.205 608.672 499.129 609.039 500.1 609.14L516.1 612.24C519.67 612.93 523.55 613.58 526.9 612.37C527.029 612.854 527.289 613.293 527.65 613.64C528.423 614.231 529.343 614.597 530.31 614.7L546.31 617.8C550.39 618.59 554.87 619.32 558.51 617.3C559.559 616.74 560.445 615.916 561.08 614.91C561.591 613.957 561.887 612.904 561.947 611.824C562.008 610.744 561.831 609.664 561.43 608.66C561.123 607.631 560.501 606.725 559.65 606.07C558.515 605.446 557.221 605.168 555.93 605.27C554.833 605.35 553.733 605.182 552.71 604.78C552.396 604.615 552.123 604.383 551.91 604.1C552.71 603.1 553.48 602.1 554.21 601.1C553.52 600.94 553.21 599.99 553.04 599.29C550.98 588.91 553.87 578.29 554.29 567.69C554.503 562.383 554.087 557.069 553.05 551.86C552.66 549.86 552.19 547.96 551.91 545.98C550.44 535.65 554.37 525.16 553.12 514.8C552.53 509.96 554.61 504.9 555.35 500.08C556 495.8 555.58 491.44 555.16 487.08L551.85 453.08C551.4 448.49 550.93 443.79 548.97 439.61C547.991 437.273 547.527 434.752 547.61 432.22C551.61 429.93 555.29 426.78 559.81 426.77C560.68 423.47 558.18 413.06 556.72 409.98C551.025 397.837 548.773 384.364 550.21 371.03C550.74 366.24 548.83 361.41 549.47 356.63C549.566 355.51 549.878 354.42 550.39 353.42C550.648 352.924 551.027 352.502 551.492 352.193C551.957 351.883 552.493 351.697 553.05 351.65C552.77 348.78 552.4 345.89 551.91 343.02C553.556 341.341 554.908 339.397 555.91 337.27C557.99 332.92 558.91 328.12 560.12 323.46C562.32 315.25 565.68 307.41 568.34 299.35C571 291.29 570.48 282.77 572.39 274.49C573.468 269.928 576.262 265.957 580.19 263.4C581.71 262.4 583.44 261.63 584.49 260.15C585.281 258.933 585.699 257.511 585.69 256.06C585.78 254.489 585.515 252.918 584.914 251.464C584.313 250.01 583.392 248.709 582.22 247.66V247.66ZM521.1 597.54C521.4 597.13 521.69 596.72 521.96 596.29C520.9 596.23 519.56 595.61 519.43 594.55C519.398 593.489 519.516 592.428 519.78 591.4C520.081 589.562 519.968 587.679 519.45 585.89C519.08 584.65 518.53 583.46 518.13 582.22C517.739 580.836 517.428 579.43 517.2 578.01C516.22 572.931 514.694 567.972 512.65 563.22C510.65 558.61 512.2 553.58 512.22 548.55C512.22 546.18 511.86 543.76 512.46 541.46C512.81 540.1 513.46 538.84 513.83 537.46C514.65 534.29 513.62 530.96 512.61 527.85C516.56 518.51 517.09 507.85 517.9 497.69C518.353 492.01 518.807 486.343 519.26 480.69C519.46 478.16 519.69 475.53 521.02 473.37C523.382 480.592 524.791 488.093 525.21 495.68C525.251 497.873 525.506 500.056 525.97 502.2C526.6 504.57 527.83 506.72 528.65 509.02C530.47 514.08 530.28 519.61 531.1 524.92C531.43 527.07 531.93 529.19 532.25 531.34C533.63 540.83 531.4 550.44 529.18 559.77C527.82 565.49 528.04 571.82 527.73 577.69C527.44 583.32 527.14 588.95 527.28 594.59C527.28 596.31 527.39 598.07 527.37 599.82C526.826 599.755 526.278 599.725 525.73 599.73C524.633 599.81 523.533 599.642 522.51 599.24C521.877 598.832 521.384 598.238 521.1 597.54V597.54Z" fill="url(#paint1_linear)"/>
<path d="M555.98 605.34C557.27 605.241 558.561 605.515 559.7 606.13C560.545 606.786 561.167 607.687 561.48 608.71C561.879 609.708 562.054 610.782 561.991 611.855C561.929 612.928 561.632 613.975 561.12 614.92C560.484 615.92 559.598 616.737 558.55 617.29C554.91 619.29 550.43 618.58 546.35 617.8L530.35 614.73C529.386 614.646 528.462 614.3 527.68 613.73C527.194 613.196 526.887 612.523 526.803 611.805C526.719 611.088 526.861 610.362 527.21 609.73C527.908 608.468 528.947 607.428 530.21 606.73C534.81 603.87 540.21 602.73 545.49 602.12C547.49 601.88 549.36 601.24 550.86 602.63C551.66 603.36 551.62 604.27 552.74 604.86C553.771 605.257 554.878 605.421 555.98 605.34Z" fill="#3F3D56"/>
<path d="M525.75 599.84C527.037 599.741 528.325 600.015 529.46 600.63C530.312 601.28 530.935 602.183 531.24 603.21C531.643 604.207 531.821 605.281 531.761 606.354C531.7 607.428 531.403 608.475 530.89 609.42C530.251 610.418 529.366 611.234 528.32 611.79C524.68 613.79 520.2 613.08 516.11 612.3L500.11 609.22C499.146 609.136 498.222 608.791 497.44 608.22C496.952 607.687 496.644 607.014 496.558 606.297C496.472 605.58 496.612 604.853 496.96 604.22C497.679 602.957 498.735 601.918 500.01 601.22C504.6 598.37 510.01 597.27 515.29 596.62C517.29 596.37 519.16 595.74 520.66 597.12C521.45 597.85 521.42 598.76 522.53 599.35C523.554 599.751 524.654 599.918 525.75 599.84V599.84Z" fill="#3F3D56"/>
<path d="M521.81 429.84C512.561 429.878 503.327 430.583 494.18 431.95C493.575 432.006 492.984 432.161 492.43 432.41C490.49 433.41 490.43 436.13 490.48 438.31C490.61 447.18 487.58 455.77 486.58 464.57C486.007 470.095 486.064 475.668 486.75 481.18C487.113 483.648 487.327 486.136 487.39 488.63C487.39 490.85 487.02 493.06 486.93 495.29C486.884 498.265 487.057 501.24 487.45 504.19C487.842 508.84 488.587 513.453 489.68 517.99C491.75 525.7 490.35 533.73 490.57 541.71C490.837 547.282 490.773 552.865 490.38 558.43C490.17 560.79 489.84 563.13 489.77 565.5C489.56 572.5 491.64 579.5 490.9 586.5C490.55 589.76 489.7 593.5 491.77 596.02C492.43 596.82 493.32 597.4 494.01 598.17C494.388 598.524 494.667 598.97 494.821 599.464C494.975 599.958 494.999 600.484 494.89 600.99C494.61 601.78 493.84 602.36 493.72 603.18C493.52 604.47 494.95 605.37 496.19 605.78C500.913 607.229 505.979 607.109 510.628 605.438C515.278 603.767 519.26 600.635 521.98 596.51C520.92 596.45 519.58 595.83 519.45 594.78C519.418 593.725 519.536 592.672 519.8 591.65C520.107 589.825 519.994 587.955 519.47 586.18C519.11 584.94 518.55 583.76 518.16 582.53C517.77 581.156 517.459 579.76 517.23 578.35C516.256 573.299 514.734 568.37 512.69 563.65C510.69 559.07 512.25 554.07 512.27 549.09C512.27 546.73 511.92 544.32 512.51 542.04C512.86 540.68 513.51 539.43 513.89 538.04C514.71 534.89 513.68 531.59 512.67 528.5C516.67 519.22 517.17 508.58 517.98 498.5L519.35 481.5C519.55 478.99 519.79 476.37 521.11 474.23C523.472 481.401 524.881 488.852 525.3 496.39C525.333 498.573 525.585 500.747 526.05 502.88C526.68 505.22 527.9 507.36 528.73 509.65C530.54 514.65 530.35 520.16 531.17 525.44C531.5 527.58 531.99 529.68 532.31 531.82C533.69 541.25 531.45 550.82 529.22 560.07C527.86 565.75 528.07 572.07 527.76 577.88C527.46 583.47 527.16 589.06 527.3 594.66C527.42 599.81 527.82 605.34 525.05 609.66C528.15 611.24 531.35 612.85 534.81 613.15C538.836 613.364 542.809 612.161 546.04 609.75C549.238 607.344 552.018 604.428 554.27 601.12C553.57 600.96 553.27 600.01 553.1 599.32C551.04 589.01 553.94 578.42 554.37 567.92C554.582 562.65 554.169 557.373 553.14 552.2C552.75 550.2 552.27 548.31 551.99 546.35C550.54 536.09 554.47 525.66 553.23 515.35C552.65 510.53 554.73 505.51 555.47 500.71C556.12 496.46 555.71 492.13 555.29 487.85L552 454.1C551.56 449.53 551.09 444.86 549.13 440.71C546.79 435.71 548.24 429.55 547.99 424.04C539.73 427.676 530.833 429.647 521.81 429.84V429.84Z" fill="#46455B"/>
<path d="M541.13 329.89C543.852 322.457 547.387 315.347 551.67 308.69C552.573 307.383 553.376 306.009 554.07 304.58C555.53 301.34 555.68 297.68 556.45 294.2C558.6 284.46 565.62 276.1 566.52 266.2C566.84 262.59 568.78 259.28 569.99 255.87C570.8 253.56 571.72 251.12 573.68 249.65C574.996 248.772 576.559 248.34 578.139 248.415C579.719 248.491 581.234 249.071 582.46 250.07C583.657 251.106 584.599 252.403 585.215 253.862C585.83 255.32 586.102 256.9 586.01 258.48C586.014 259.921 585.597 261.332 584.81 262.54C583.75 264.01 582.03 264.8 580.51 265.77C576.59 268.297 573.793 272.236 572.7 276.77C570.78 285 571.3 293.45 568.63 301.46C565.96 309.47 562.63 317.27 560.4 325.46C559.15 330.09 558.26 334.86 556.17 339.18C554.08 343.5 550.53 347.4 545.86 348.51C545.566 345.536 544.796 342.63 543.58 339.9C542.18 336.74 539.95 333.1 541.13 329.89Z" fill="#A0616A"/>
<path d="M490.82 341.3C490.434 335.457 488.926 329.743 486.38 324.47C485.38 322.47 484.26 320.47 484.14 318.18C484.201 316.092 484.673 314.036 485.53 312.13C487.794 305.292 489.582 298.305 490.88 291.22L493.64 277.92C494.875 276.799 495.967 275.529 496.89 274.14C498.82 271.377 499.952 268.134 500.16 264.77C500.252 263.092 500.009 261.412 499.444 259.829C498.879 258.245 498.004 256.791 496.87 255.55C496.363 254.952 495.734 254.469 495.025 254.135C494.316 253.8 493.544 253.621 492.76 253.61C492.08 253.69 491.424 253.909 490.833 254.253C490.241 254.597 489.726 255.059 489.32 255.61C488.118 257.296 487.253 259.197 486.77 261.21C485.77 264.51 484.77 267.94 485.21 271.36C485.61 274.19 487.01 277.26 485.58 279.74C480.89 287.89 477.66 297.03 474.18 305.74C473.29 307.834 472.564 309.994 472.01 312.2C471.308 315.757 471.18 319.403 471.63 323C472.449 329.752 473.752 336.435 475.53 343C476.53 347.12 477.78 351.6 481.24 354.07C484.09 349.51 486.97 345.04 490.82 341.3Z" fill="#A0616A"/>
<path d="M510.33 342.45C519.813 342.45 527.5 334.763 527.5 325.28C527.5 315.797 519.813 308.11 510.33 308.11C500.847 308.11 493.16 315.797 493.16 325.28C493.16 334.763 500.847 342.45 510.33 342.45Z" fill="#A0616A"/>
<path d="M503.92 344.11C503.82 347.24 502.46 350.17 501.12 353.01C500.31 354.72 499.25 356.63 497.4 357.01C502.607 359.093 508.011 360.644 513.53 361.64C515.419 362.064 517.365 362.175 519.29 361.97C520.909 361.681 522.463 361.105 523.88 360.27C526.988 358.508 529.653 356.061 531.675 353.116C533.697 350.17 535.022 346.803 535.55 343.27C533.431 343.547 531.29 343.604 529.16 343.44C527.955 343.473 526.783 343.039 525.89 342.23C525.327 341.446 525.007 340.514 524.97 339.55C524.59 336.71 524.287 333.863 524.06 331.01C519.837 331.174 515.682 332.127 511.81 333.82C510.21 334.52 508.65 335.33 507 335.93C506 336.29 503.11 336.36 502.41 337.01C501.33 338.04 503.98 341.95 503.92 344.11Z" fill="#A0616A"/>
<path d="M512.53 353.71C512.109 351.487 511 349.452 509.36 347.892C507.72 346.333 505.632 345.328 503.39 345.02C501.59 344.81 499.69 345.02 498.02 344.35C495.17 343.12 493.97 339.53 491.21 338.12C488.45 336.71 484.87 338.02 482.83 340.38C480.79 342.74 479.93 345.95 479.31 348.95C478.348 353.11 478.035 357.394 478.38 361.65C478.427 362.431 478.635 363.193 478.99 363.89C479.563 364.69 480.254 365.398 481.04 365.99C482.112 366.976 482.959 368.181 483.523 369.524C484.087 370.866 484.356 372.314 484.31 373.77C484.345 376.509 484.874 379.219 485.87 381.77C488.26 388.85 490.66 395.94 492.74 403.12C493.194 404.448 493.443 405.837 493.48 407.24C493.43 409.24 492.48 411.24 492.97 413.19C493.296 414.089 493.567 415.008 493.78 415.94C493.797 416.663 493.702 417.385 493.5 418.08C492.19 423.7 488.43 436.64 489.08 442.37C497.61 439.23 510.48 437.37 519.52 436.37C522.006 436.084 524.507 435.937 527.01 435.93C533.01 435.93 539.3 437.06 544.9 434.86C550.09 432.86 554.4 428.04 559.98 428.02C560.85 424.75 558.35 414.41 556.9 411.35C551.212 399.298 548.969 385.908 550.42 372.66C550.94 367.9 549.04 363.1 549.69 358.35C549.782 357.238 550.092 356.154 550.6 355.16C550.863 354.666 551.244 354.245 551.71 353.936C552.177 353.627 552.713 353.439 553.27 353.39C552.605 345.943 551.147 338.588 548.92 331.45C548.11 328.91 546.65 325.97 543.99 325.8C541.59 325.64 539.82 327.8 538.09 329.49C536.304 331.184 534.172 332.471 531.84 333.26C530.885 333.471 529.993 333.906 529.24 334.53C528.24 335.58 528.24 337.29 527.41 338.53C525.97 340.75 522.29 340.96 521.41 343.44C521.225 344.169 521.095 344.911 521.02 345.66C520.611 347.12 519.792 348.432 518.66 349.44C517.003 351.35 514.896 352.817 512.53 353.71V353.71Z" fill="#2F2E41"/>
<path d="M522.32 305.69C522.467 305.124 522.452 304.528 522.275 303.971C522.098 303.413 521.767 302.917 521.32 302.54C520.793 302.292 520.252 302.075 519.7 301.89C518.95 301.379 518.313 300.719 517.83 299.95C516.423 298.363 514.5 297.325 512.402 297.017C510.303 296.71 508.163 297.154 506.36 298.27C503.55 300.13 502.08 303.43 499.68 305.8C498.45 307.03 496.98 307.99 495.74 309.22C493.284 311.834 491.683 315.134 491.15 318.68C490.637 322.209 490.493 325.781 490.72 329.34C490.69 330.419 490.846 331.494 491.18 332.52C491.539 333.361 492.032 334.137 492.64 334.82C495.688 338.802 499.774 341.867 504.45 343.68C509.15 345.34 514.64 345.14 518.84 342.45C519.261 342.217 519.607 341.871 519.84 341.45C520.04 340.826 520.04 340.154 519.84 339.53C519.339 337.039 519.579 334.456 520.53 332.1C521.364 330.459 522.105 328.774 522.75 327.05C523.161 325.076 523.215 323.044 522.91 321.05C522.42 315.95 521.53 310.81 522.32 305.69Z" fill="#46455B"/>
<path d="M812.85 571.95C812.85 670.33 874.57 749.95 950.85 749.95Z" fill="#46455B"/>
<path d="M950.85 749.95C950.85 650.45 1019.72 569.95 1104.85 569.95Z" fill="#1EDC26"/>
<path d="M862.85 580.81C862.85 674.27 902.2 749.9 950.85 749.9Z" fill="#1EDC26"/>
<path d="M950.85 749.95C950.85 622.82 1030.46 519.95 1128.85 519.95Z" fill="#46455B"/>
<path opacity="0.1" d="M944.86 783.9C963.809 783.9 979.17 781.303 979.17 778.1C979.17 774.897 963.809 772.3 944.86 772.3C925.911 772.3 910.55 774.897 910.55 778.1C910.55 781.303 925.911 783.9 944.86 783.9Z" fill="#3B82F6"/>
<path d="M921.81 751.15C921.81 751.15 941.38 750.55 947.28 746.35C953.18 742.15 977.39 737.13 978.85 743.87C980.31 750.61 1008.26 777.37 986.17 777.55C964.08 777.73 934.83 774.11 928.94 770.55C923.05 766.99 921.81 751.15 921.81 751.15Z" fill="#A8A8A8"/>
<path opacity="0.2" d="M986.53 775.2C964.44 775.38 935.19 771.76 929.3 768.2C924.82 765.46 923.03 755.67 922.44 751.14H921.78C921.78 751.14 923.02 766.92 928.91 770.51C934.8 774.1 964.04 777.72 986.14 777.51C992.51 777.46 994.72 775.19 994.6 771.83C993.74 773.95 991.31 775.16 986.53 775.2Z" fill="black"/>
<path opacity="0.1" d="M815.53 36.6C816.395 35.3679 816.872 33.9053 816.9 32.4C816.9 23.28 798.32 15.9 775.4 15.9C752.48 15.9 733.9 23.28 733.9 32.4C733.919 34.096 734.491 35.7394 735.53 37.08C710.01 39.93 692.82 45.27 692.82 51.4C692.82 60.51 730.82 67.9 777.82 67.9C824.82 67.9 862.82 60.51 862.82 51.4C862.85 44.95 843.53 39.3 815.53 36.6Z" fill="#3B82F6"/>
<path opacity="0.1" d="M306.53 54.6C307.395 53.3679 307.872 51.9053 307.9 50.4C307.9 41.28 289.32 33.9 266.4 33.9C243.48 33.9 224.9 41.28 224.9 50.4C224.941 52.1053 225.542 53.7497 226.61 55.08C201.09 57.93 183.9 63.27 183.9 69.4C183.9 78.51 221.95 85.9 268.9 85.9C315.85 85.9 353.9 78.51 353.9 69.4C353.85 62.95 334.53 57.3 306.53 54.6Z" fill="#3B82F6"/>
<path opacity="0.1" d="M598.27 40.74C600.6 39.39 603.75 40.68 605.35 42.86C606.95 45.04 607.35 47.86 607.8 50.48C608.69 56.4 609.34 63.19 605.35 67.64C611.87 47.87 630.62 32.73 651.35 30.52" stroke="#3B82F6" stroke-width="3" stroke-miterlimit="10"/>
<path opacity="0.1" d="M264.74 141.72C266.24 140.85 268.26 141.72 269.29 143.08C270.207 144.561 270.75 146.242 270.87 147.98C271.44 151.79 271.87 156.15 269.3 158.98C271.493 152.631 275.426 147.027 280.651 142.807C285.876 138.586 292.182 135.919 298.85 135.11" stroke="#3B82F6" stroke-width="3" stroke-miterlimit="10"/>
<path opacity="0.1" d="M714.74 171.72C716.24 170.85 718.26 171.72 719.29 173.08C720.207 174.561 720.75 176.242 720.87 177.98C721.44 181.79 721.87 186.15 719.3 188.98C721.493 182.631 725.426 177.027 730.651 172.807C735.876 168.586 742.182 165.919 748.85 165.11" stroke="#3B82F6" stroke-width="3" stroke-miterlimit="10"/>
<path opacity="0.1" d="M677.85 507.95V483.65L689.05 494.85L691.85 491.95L675.85 475.95L659.85 491.95L662.65 494.74L673.85 483.65V507.95H677.85Z" fill="#3B82F6"/>
<path opacity="0.1" d="M435.85 587.95V563.65L447.05 574.85L449.85 571.95L433.85 555.95L417.85 571.95L420.65 574.74L431.85 563.65V587.95H435.85Z" fill="#3B82F6"/>
<path opacity="0.1" d="M613.85 658.95V634.65L625.05 645.85L627.85 642.95L611.85 626.95L595.85 642.95L598.65 645.74L609.85 634.65V658.95H613.85Z" fill="#3B82F6"/>
</g>
<defs>
<linearGradient id="paint0_linear" x1="373.06" y1="271.15" x2="373.06" y2="2.04481e-05" gradientUnits="userSpaceOnUse">
<stop stop-color="#808080" stop-opacity="0.25"/>
<stop offset="0.54" stop-color="#808080" stop-opacity="0.12"/>
<stop offset="1" stop-color="#808080" stop-opacity="0.1"/>
</linearGradient>
<linearGradient id="paint1_linear" x1="77520.5" y1="169180" x2="92274.6" y2="167655" gradientUnits="userSpaceOnUse">
<stop stop-color="#808080" stop-opacity="0.25"/>
<stop offset="0.54" stop-color="#808080" stop-opacity="0.12"/>
<stop offset="1" stop-color="#808080" stop-opacity="0.1"/>
</linearGradient>
<clipPath id="clip0">
<rect width="1139.07" height="783.9" fill="white"/>
</clipPath>
</defs>
</svg>
